<svg version="1.1" xmlns="http://www.w3.org/2000/svg" style="display: block;" viewBox="0 0 2000 2000" width="500" height="500">
<path transform="translate(0,0)" fill="rgb(255,255,255)" d="M 0 0 L 2000 0 L 2000 2000 L 0 2000 L 0 0 z"/>
<path transform="translate(0,0)" fill="rgb(73,33,8)" d="M 1333.61 512.437 C 1376.89 510.803 1420.03 518.196 1460.29 534.145 C 1536.04 565.218 1596.41 624.997 1628.23 700.429 C 1659.86 776.58 1660.15 862.134 1629.05 938.501 C 1597.26 1015.52 1535.33 1073.82 1459.01 1105.76 C 1458.14 1085.04 1457.14 1064.33 1456.02 1043.62 C 1455.35 1030.5 1453.89 1016.8 1454.91 1003.69 C 1457.43 971.161 1483.41 970.371 1503.45 952.978 C 1519.24 939.271 1524.31 919.817 1525.58 899.622 C 1528.41 854.687 1515.23 798.906 1484.92 764.572 C 1474.05 752.262 1460.11 741.949 1443.07 741.203 C 1428.29 740.557 1414.19 747.579 1403.46 757.303 C 1371.94 785.864 1357.97 838.304 1356.26 879.326 C 1354.88 912.229 1359.16 943.849 1390.42 961.293 C 1399.68 966.458 1410.03 970.722 1417.14 978.861 C 1421.98 984.402 1424.78 991.102 1425.99 998.308 C 1428.59 1013.76 1426.5 1030.83 1425.77 1046.49 L 1422.35 1118.14 C 1363.98 1130.46 1323.69 1129.81 1265.08 1117.43 C 1264.76 1113.48 1264.49 1109.53 1264.27 1105.58 C 1262.93 1083.68 1257.83 1019.09 1261.72 1001.24 C 1263.47 993.231 1268.07 985.79 1274.19 980.388 C 1286.96 969.116 1304.23 965.956 1315.75 952.461 C 1336.61 928.017 1331.45 887.772 1329.2 858.242 C 1328.03 845.479 1322.07 758.886 1319.84 754.288 C 1319.16 752.877 1318.71 752.307 1317.08 752.008 C 1314.56 751.545 1310.57 751.916 1308.51 753.477 C 1306.41 766.391 1307.77 781.183 1307.64 794.355 L 1307.01 889.852 L 1287.29 891.905 C 1285.52 839.93 1279.78 787.716 1276.43 735.787 L 1263.17 737.139 L 1260.83 893.963 L 1238.34 893.921 L 1235.03 737.018 C 1230.7 736.728 1226.37 736.153 1222.06 735.678 C 1219.78 787.7 1214.84 839.783 1211.81 891.8 L 1192.21 889.911 L 1191.61 801.148 C 1191.5 785.34 1192.49 768.585 1190.73 752.895 C 1187.34 751.398 1183.03 751.935 1179.38 751.971 C 1175.53 774.238 1173.89 797.347 1171.29 819.818 C 1168.41 844.764 1164.17 870.291 1164.06 895.428 C 1163.95 921.002 1168.97 951.267 1193.87 964.589 C 1204 970.011 1215.45 974.353 1223.53 982.797 C 1229.48 989.025 1232.23 996.352 1233.72 1004.7 C 1236.21 1018.63 1234.48 1033.74 1233.8 1047.81 C 1232.75 1067.04 1231.8 1086.27 1230.97 1105.51 C 1198.27 1094.12 1165.29 1073.11 1139.68 1049.95 C 1080.87 996.762 1042.01 921.874 1038.22 842.074 C 1033.97 752.619 1057.89 677.781 1118.3 611.442 C 1174.36 549.87 1250.92 516.396 1333.61 512.437 z"/>
<path transform="translate(0,0)" fill="rgb(73,33,8)" d="M 605.379 1192.96 C 615.724 1175.07 621.625 1153.27 627.769 1133.63 C 637.895 1100.6 647.542 1067.42 656.706 1034.11 C 680.057 951.627 703.099 868.827 733.509 788.598 C 737.962 776.848 747.489 750.805 760.244 745.733 C 762.696 744.758 765.37 744.813 767.717 746.103 C 771.689 748.286 772.77 752.322 774.07 756.322 C 778.491 757.681 781.733 758.68 784.204 762.817 C 789.864 772.291 785.905 818.673 785.048 830.929 C 779.868 905.054 770.462 979.054 762.07 1052.88 C 748.862 1162.77 737.899 1272.93 729.187 1383.27 C 728.266 1395.67 724.15 1420.5 725.467 1431.51 C 725.67 1433.21 726.541 1433.97 727.628 1435.22 C 740.3 1412.2 750.533 1386.96 761.618 1363.08 C 786.85 1308.74 812.149 1255.02 844.265 1204.33 C 852.207 1191.79 858.162 1178.62 869.687 1168.81 C 879.159 1160.74 895.071 1151.91 907.751 1155.46 C 913.871 1157.17 919.208 1160.06 925.659 1160.53 C 928.465 1157.57 931.288 1154.24 935.369 1153.12 C 938.113 1152.36 941.366 1152.68 943.7 1154.41 C 946.9 1156.78 946.852 1160.6 946.947 1164.18 C 950.222 1164.84 955.849 1165.47 957.76 1168.73 C 960.916 1174.11 954.913 1210.36 954.895 1219.52 C 957.64 1219.94 960.065 1220.16 962.814 1219.57 C 979.988 1215.9 989.604 1194.55 998.179 1181.48 C 1009.26 1164.58 1029.99 1151.91 1050.54 1156.4 C 1054.81 1157.33 1062.09 1161.33 1066.02 1160.54 C 1066.99 1158.92 1067.99 1157.09 1069.3 1155.71 C 1071.07 1153.84 1075.22 1152.86 1077.7 1152.77 C 1080.35 1152.67 1082.91 1153.73 1084.7 1155.69 C 1086.99 1158.15 1086.89 1161.04 1086.94 1164.17 C 1090.13 1164.81 1095.82 1165.45 1097.58 1168.69 C 1100.61 1174.23 1094.92 1210.11 1094.9 1219.52 C 1097.05 1219.94 1099.04 1220.12 1101.21 1219.8 C 1114.07 1217.95 1126.08 1202.78 1133.24 1192.85 C 1133.73 1185.87 1133.97 1178.98 1137.94 1172.93 C 1141.09 1168.15 1145.82 1164.56 1151.55 1163.57 C 1155.99 1162.8 1159.34 1164.46 1162.9 1166.9 C 1164.39 1170.03 1163.88 1171.81 1163.62 1175.22 C 1167.56 1177.83 1174.47 1175.03 1175.33 1180.79 C 1177.32 1194.18 1169.41 1212.13 1175.02 1224.94 C 1205.1 1212.04 1195.73 1184.94 1205.54 1162.94 C 1206.97 1159.73 1209.3 1156.26 1212.87 1155.24 C 1216.03 1154.33 1220.39 1155.66 1222.89 1157.75 C 1226.07 1160.41 1225.92 1164.81 1226.19 1168.59 C 1229.08 1168.39 1232.01 1167.9 1234.39 1169.93 C 1237.87 1172.91 1238.63 1177.94 1238.66 1182.28 C 1238.73 1193.8 1235.35 1208.64 1238.75 1219.63 L 1240.16 1220.75 C 1249.02 1213.19 1259 1206.44 1267.08 1198.04 C 1282.15 1182.37 1278.9 1171.7 1303.51 1159.56 C 1317.88 1152.47 1330.34 1155.91 1344.6 1160.84 C 1347 1160.36 1347.96 1157.68 1349.3 1155.68 C 1351.85 1154.19 1354.65 1152.6 1357.72 1152.71 C 1360.31 1152.8 1362.93 1153.7 1364.68 1155.71 C 1366.99 1158.36 1366.89 1160.95 1366.94 1164.25 C 1370.14 1164.84 1375.83 1165.42 1377.61 1168.67 C 1381.07 1175.04 1374.93 1209.74 1374.9 1219.52 C 1377.05 1219.93 1379.04 1220.11 1381.21 1219.8 C 1394.79 1217.85 1407.12 1201.2 1414.9 1191.04 C 1414.7 1182.82 1411.19 1166.24 1416.06 1159.62 C 1417.65 1157.45 1419.82 1156.75 1422.41 1156.51 C 1424.95 1156.28 1427.4 1157.17 1429.27 1158.86 C 1434.71 1163.75 1433.86 1177.76 1434.25 1184.78 C 1444.96 1171.62 1455.53 1155.1 1472.51 1149.51 C 1477.6 1147.83 1483.78 1146.77 1488.73 1149.41 C 1494.37 1152.42 1496.95 1157.45 1498.88 1163.29 C 1503.22 1164.66 1505.8 1165.72 1507.9 1170.1 C 1514.98 1184.83 1503.16 1209.73 1508.26 1222.8 C 1522.93 1211.61 1528.02 1192.79 1540.05 1179.48 C 1535.58 1200.72 1527.66 1220.7 1510.14 1234.51 C 1503.35 1237.94 1498.61 1239.48 1490.82 1239.27 C 1487.19 1237.48 1484.02 1235.44 1481.47 1232.22 C 1471.45 1219.54 1474.87 1199.06 1476.27 1184.13 C 1469.59 1186.62 1465.32 1197.65 1462.51 1203.79 C 1457.7 1214.32 1448.05 1248.4 1438.47 1251.75 C 1436.07 1252.59 1433.32 1252.03 1431.12 1250.86 C 1428.8 1249.63 1427.87 1248.55 1427.3 1245.96 C 1427 1244.59 1427.02 1243.01 1426.95 1241.61 L 1426.12 1240.65 C 1424.27 1240.2 1422.16 1239.82 1420.41 1239.06 C 1417.55 1237.81 1416.74 1235.71 1415.61 1233.03 C 1412.88 1233.87 1410.01 1236.32 1407.49 1237.78 C 1401.83 1241.05 1395.47 1243.32 1389.08 1244.65 C 1381.56 1246.22 1371.46 1247.15 1364.96 1242.42 C 1360.98 1239.53 1360.16 1237.5 1359.34 1232.89 C 1354.8 1231.27 1351.43 1228.95 1347.58 1226.16 C 1347.2 1226.55 1346.81 1226.93 1346.44 1227.33 C 1335.25 1239.17 1330.45 1253.05 1310.78 1253.92 C 1302.72 1254.28 1292.39 1252.2 1286.41 1246.51 C 1284.88 1245.06 1284.67 1242.43 1284.4 1240.44 C 1279.24 1238.82 1274.96 1234.9 1271.07 1231.3 C 1255.01 1242.21 1240.03 1257.34 1236.35 1277.04 C 1233.45 1292.59 1234.81 1309.77 1234.64 1325.6 C 1234.24 1361.1 1233.61 1437.74 1201.39 1459.38 C 1193.99 1464.35 1184.92 1466.8 1176.12 1464.93 C 1168.87 1463.39 1157.8 1461.58 1153.97 1454.49 C 1153.34 1453.32 1153.01 1451.98 1152.64 1450.72 C 1146.74 1447.73 1141.62 1443.42 1137.68 1438.11 C 1107.13 1396.56 1141.88 1328.86 1167.73 1293.6 C 1175.37 1283.18 1194.56 1264.14 1199.51 1255.19 C 1200.9 1252.68 1201.22 1249.4 1201.65 1246.6 C 1191.56 1249.44 1174.99 1249.69 1165.51 1244.98 C 1160.63 1242.55 1158.49 1240.14 1156.86 1234.98 C 1151.09 1232.07 1146.85 1227.82 1142.61 1223.1 C 1132.66 1235.78 1120.58 1243.66 1104.34 1245.49 C 1097.86 1246.23 1090.3 1246.49 1084.87 1242.23 C 1081.26 1239.39 1079.82 1237.53 1079.35 1232.89 C 1074.78 1231.28 1071.41 1228.94 1067.55 1226.13 C 1067.18 1226.52 1066.8 1226.91 1066.43 1227.31 C 1055.26 1239.47 1049.99 1253.13 1030.39 1253.89 C 1023.11 1254.17 1012.45 1252.27 1007.02 1247.04 C 1004.98 1245.08 1004.72 1243.09 1004.24 1240.38 C 1000.57 1238.98 997.469 1236.71 994.221 1234.55 C 986.653 1238.54 979.905 1242.16 971.52 1244.16 C 963.18 1246.14 952.32 1247.15 944.89 1242.19 C 940.911 1239.53 940.116 1237.37 939.321 1232.89 C 934.767 1231.27 931.399 1228.93 927.55 1226.13 C 927.179 1226.52 926.802 1226.91 926.436 1227.31 C 915.281 1239.5 909.955 1253.11 890.385 1253.9 C 882.738 1254.21 872.056 1252.29 866.473 1246.6 C 864.752 1244.84 864.571 1242.67 864.178 1240.35 C 861.889 1239.65 859.596 1238.15 857.459 1237.04 C 840.934 1258.32 826.376 1297.39 815.465 1322.93 C 798.898 1361.7 782.843 1400.73 765.749 1439.26 C 757.999 1456.74 750.348 1477.4 738.933 1492.72 C 734.836 1498.21 729.234 1503.46 722.096 1504.26 C 717.64 1504.76 712.761 1502.05 709.502 1499.2 C 707.097 1497.1 706.686 1494.76 705.248 1492.17 C 705.146 1491.98 704.955 1491.87 704.809 1491.72 C 701.861 1490.61 699.004 1489.6 696.845 1487.19 C 688.91 1478.33 690.775 1438.09 691.164 1425.23 C 692.453 1382.61 697.079 1339.6 700.655 1297.08 C 712.999 1150.33 733.457 1004.44 746.447 857.794 L 745.12 855.344 L 742.525 855.118 C 737.644 862.999 731.567 886.826 728.133 897.4 C 707.976 959.464 690.047 1022.18 671.518 1084.74 C 658.981 1127.07 643.901 1188.1 622.159 1225.44 C 618.537 1231.67 614.369 1237.24 607.032 1239.03 C 602.122 1240.23 597.026 1239.17 592.825 1236.4 C 589.156 1233.98 587.841 1231.28 586.656 1227.19 C 584.612 1226.48 582.464 1225.75 580.622 1224.58 C 576.118 1221.71 574.662 1216.76 573.693 1211.81 C 568.365 1184.61 567.442 1155.58 564.846 1127.96 C 559.826 1074.54 554.128 1020.35 542.768 967.856 C 541.282 968.832 540.072 969.65 539.217 971.263 C 532.604 983.742 526.312 1021.88 522.959 1038.05 C 510.77 1098.39 499.606 1158.93 489.473 1219.65 C 484.099 1250.6 480.496 1283 472.389 1313.29 C 470.47 1320.46 467.283 1333.07 460.696 1337.26 C 458.324 1338.77 455.893 1339.14 453.142 1338.6 C 448.657 1337.72 443.486 1333.96 441.274 1329.97 C 440.627 1328.8 440.157 1327.57 439.666 1326.33 C 435.881 1324.75 432.61 1323.54 430.438 1319.81 C 418.927 1300.07 430.202 930.079 431.953 878.415 C 432.504 862.159 430.244 834.527 433.721 819.969 C 434.461 816.869 435.65 815.121 438.448 813.479 C 442.094 812.869 444.681 813.74 447.673 815.757 C 452.228 818.826 452.379 822.132 453.253 827.265 C 455.11 827.256 459.301 826.669 460.609 828.008 C 465.844 833.368 465.496 852.437 465.684 859.493 C 466.458 888.602 463.815 918.112 463.042 947.251 C 460.963 1012.43 459.548 1077.62 458.797 1142.83 C 458.62 1156.31 456.504 1171.21 458.323 1184.51 C 458.812 1188.08 460.013 1189.2 462.85 1191.18 C 472.918 1130.78 482.701 1070.64 497.226 1011.09 C 502.04 991.352 516.402 930.686 533.611 921.052 C 536.599 919.38 539.951 918.769 543.268 919.789 C 550.173 921.911 553.864 928.801 556.929 934.783 C 561.312 936.001 562.913 936.804 565.349 940.915 C 585.541 974.986 594.747 1108.73 599.534 1154.1 C 600.487 1163.14 601.042 1186.1 605.379 1192.96 z"/>
<path transform="translate(0,0)" fill="rgb(220,215,214)" d="M 774.07 756.322 C 778.491 757.681 781.733 758.68 784.204 762.817 C 789.864 772.291 785.905 818.673 785.048 830.929 C 779.868 905.054 770.462 979.054 762.07 1052.88 C 748.862 1162.77 737.899 1272.93 729.187 1383.27 C 728.266 1395.67 724.15 1420.5 725.467 1431.51 C 725.67 1433.21 726.541 1433.97 727.628 1435.22 C 725.662 1441.03 720.386 1454.12 715.536 1457.55 L 713.954 1456.84 C 709.304 1444.72 716.053 1385.16 717.33 1369.52 C 726.957 1250.56 739 1131.79 753.451 1013.32 C 758.973 965.753 764.084 918.143 768.785 870.492 C 772.426 833.211 777.619 793.709 774.07 756.322 z"/>
<path transform="translate(0,0)" fill="rgb(220,215,214)" d="M 751.121 786.847 C 752.474 807.255 750.11 837.679 746.447 857.794 L 745.12 855.344 L 742.525 855.118 C 737.644 862.999 731.567 886.826 728.133 897.4 C 707.976 959.464 690.047 1022.18 671.518 1084.74 C 658.981 1127.07 643.901 1188.1 622.159 1225.44 C 618.537 1231.67 614.369 1237.24 607.032 1239.03 C 602.122 1240.23 597.026 1239.17 592.825 1236.4 C 589.156 1233.98 587.841 1231.28 586.656 1227.19 C 590.148 1226.99 593.949 1226.94 597.324 1226.03 C 610.343 1222.51 622.892 1185.96 627.679 1173.41 C 640.937 1138.63 650.542 1102.32 661.149 1066.66 C 679.114 1004.35 697.96 942.292 717.679 880.511 C 726.965 851.795 737.285 813.154 751.121 786.847 z"/>
<path transform="translate(0,0)" fill="rgb(220,215,214)" d="M 439.666 1326.33 C 442.506 1326.21 445.856 1326.13 448.483 1324.89 C 455.441 1321.62 458.682 1308.49 460.54 1301.6 C 468.497 1272.1 471.915 1240.27 477.142 1210.11 C 487.191 1149.9 498.213 1089.86 510.205 1030.02 C 515.75 1003.23 520.063 973.271 530.818 948.087 C 531.932 945.477 532.704 943.871 535.38 942.816 C 535.672 943.001 535.994 943.147 536.256 943.373 C 540.889 947.375 542.031 961.734 542.768 967.856 C 541.282 968.832 540.072 969.65 539.217 971.263 C 532.604 983.742 526.312 1021.88 522.959 1038.05 C 510.77 1098.39 499.606 1158.93 489.473 1219.65 C 484.099 1250.6 480.496 1283 472.389 1313.29 C 470.47 1320.46 467.283 1333.07 460.696 1337.26 C 458.324 1338.77 455.893 1339.14 453.142 1338.6 C 448.657 1337.72 443.486 1333.96 441.274 1329.97 C 440.627 1328.8 440.157 1327.57 439.666 1326.33 z"/>
<path transform="translate(0,0)" fill="rgb(220,215,214)" d="M 453.253 827.265 C 455.11 827.256 459.301 826.669 460.609 828.008 C 465.844 833.368 465.496 852.437 465.684 859.493 C 466.458 888.602 463.815 918.112 463.042 947.251 C 460.963 1012.43 459.548 1077.62 458.797 1142.83 C 458.62 1156.31 456.504 1171.21 458.323 1184.51 C 458.812 1188.08 460.013 1189.2 462.85 1191.18 C 461.803 1201.65 454.677 1252.39 450.16 1259.42 L 448.813 1259.19 C 439.658 1239.75 452.618 924.168 453.719 871.097 C 454.023 856.446 453.453 841.903 453.253 827.265 z"/>
<path transform="translate(0,0)" fill="rgb(220,215,214)" d="M 846.642 1220.74 C 849.487 1227.55 851.861 1232.09 857.459 1237.04 C 840.934 1258.32 826.376 1297.39 815.465 1322.93 C 798.898 1361.7 782.843 1400.73 765.749 1439.26 C 757.999 1456.74 750.348 1477.4 738.933 1492.72 C 734.836 1498.21 729.234 1503.46 722.096 1504.26 C 717.64 1504.76 712.761 1502.05 709.502 1499.2 C 707.097 1497.1 706.686 1494.76 705.248 1492.17 C 705.146 1491.98 704.955 1491.87 704.809 1491.72 C 708.456 1491.42 712.197 1491.18 715.719 1490.12 C 722.247 1488.16 726.228 1482.41 729.617 1476.86 C 745.218 1451.32 756.535 1421.65 768.254 1394.14 C 793.122 1335.74 815.864 1276.34 846.642 1220.74 z"/>
<path transform="translate(0,0)" fill="rgb(220,215,214)" d="M 1267.35 1221.26 L 1271.07 1231.3 C 1255.01 1242.21 1240.03 1257.34 1236.35 1277.04 C 1233.45 1292.59 1234.81 1309.77 1234.64 1325.6 C 1234.24 1361.1 1233.61 1437.74 1201.39 1459.38 C 1193.99 1464.35 1184.92 1466.8 1176.12 1464.93 C 1168.87 1463.39 1157.8 1461.58 1153.97 1454.49 C 1153.34 1453.32 1153.01 1451.98 1152.64 1450.72 C 1157.77 1452.18 1163.19 1453.43 1168.55 1453.4 C 1221.89 1453.14 1222.45 1354.03 1222.8 1316.06 C 1222.94 1301.12 1221.51 1284.89 1223.57 1270.12 C 1224.94 1260.18 1227.98 1249.19 1235.06 1241.79 L 1237.17 1242.87 C 1244.48 1242.87 1258.88 1225.13 1267.35 1221.26 z"/>
<path transform="translate(0,0)" fill="rgb(220,215,214)" d="M 556.929 934.783 C 561.312 936.001 562.913 936.804 565.349 940.915 C 585.541 974.986 594.747 1108.73 599.534 1154.1 C 600.487 1163.14 601.042 1186.1 605.379 1192.96 C 603.471 1195.09 602.728 1196.71 599.805 1197.01 C 595.911 1194.55 594.742 1188.92 593.749 1184.68 C 588.872 1163.87 587.58 1141.22 585.412 1119.95 C 581.452 1081.1 578.012 1042.1 572.201 1003.46 C 568.679 980.036 563.908 957.418 556.929 934.783 z"/>
<path transform="translate(0,0)" fill="rgb(220,215,214)" d="M 1426.12 1240.65 C 1429.19 1239.51 1431.38 1238.36 1433.27 1235.58 C 1437.63 1229.18 1440.02 1220.8 1442.69 1213.57 C 1447.96 1199.28 1454.19 1182.73 1463.43 1170.59 C 1466.35 1166.75 1469.93 1163.37 1474.89 1162.77 C 1475.11 1162.98 1475.37 1163.17 1475.55 1163.41 C 1478.67 1167.47 1477.36 1179.3 1476.27 1184.13 C 1469.59 1186.62 1465.32 1197.65 1462.51 1203.79 C 1457.7 1214.32 1448.05 1248.4 1438.47 1251.75 C 1436.07 1252.59 1433.32 1252.03 1431.12 1250.86 C 1428.8 1249.63 1427.87 1248.55 1427.3 1245.96 C 1427 1244.59 1427.02 1243.01 1426.95 1241.61 L 1426.12 1240.65 z"/>
<path transform="translate(0,0)" fill="rgb(220,215,214)" d="M 921.545 1203.13 C 922.192 1211.68 923.677 1218.42 927.55 1226.13 C 927.179 1226.52 926.802 1226.91 926.436 1227.31 C 915.281 1239.5 909.955 1253.11 890.385 1253.9 C 882.738 1254.21 872.056 1252.29 866.473 1246.6 C 864.752 1244.84 864.571 1242.67 864.178 1240.35 C 870.29 1241.88 876.393 1242.45 882.605 1241.13 C 902.242 1236.95 911.828 1218.72 921.545 1203.13 z"/>
<path transform="translate(0,0)" fill="rgb(220,215,214)" d="M 1341.54 1203.15 C 1342.2 1211.72 1343.68 1218.45 1347.58 1226.16 C 1347.2 1226.55 1346.81 1226.93 1346.44 1227.33 C 1335.25 1239.17 1330.45 1253.05 1310.78 1253.92 C 1302.72 1254.28 1292.39 1252.2 1286.41 1246.51 C 1284.88 1245.06 1284.67 1242.43 1284.4 1240.44 C 1290.4 1241.98 1296.53 1242.45 1302.62 1241.15 C 1322.21 1236.96 1331.83 1218.71 1341.54 1203.15 z"/>
<path transform="translate(0,0)" fill="rgb(220,215,214)" d="M 1061.55 1203.12 C 1062.19 1211.69 1063.67 1218.43 1067.55 1226.13 C 1067.18 1226.52 1066.8 1226.91 1066.43 1227.31 C 1055.26 1239.47 1049.99 1253.13 1030.39 1253.89 C 1023.11 1254.17 1012.45 1252.27 1007.02 1247.04 C 1004.98 1245.08 1004.72 1243.09 1004.24 1240.38 C 1010.32 1241.94 1016.46 1242.46 1022.64 1241.14 C 1042.23 1236.94 1051.85 1218.69 1061.55 1203.12 z"/>
<path transform="translate(0,0)" fill="rgb(220,215,214)" d="M 1138.04 1212.86 C 1138.8 1216.67 1140.72 1219.76 1142.61 1223.1 C 1132.66 1235.78 1120.58 1243.66 1104.34 1245.49 C 1097.86 1246.23 1090.3 1246.49 1084.87 1242.23 C 1081.26 1239.39 1079.82 1237.53 1079.35 1232.89 C 1090.68 1234.6 1098.95 1232.66 1109.69 1229.38 C 1110.6 1230.15 1111.27 1231.04 1112.51 1231.22 C 1116.47 1231.78 1121.19 1229.05 1124.4 1227.04 C 1128.96 1224.17 1136.85 1218.35 1138.04 1212.86 z"/>
<path transform="translate(0,0)" fill="rgb(220,215,214)" d="M 1226.19 1168.59 C 1229.08 1168.39 1232.01 1167.9 1234.39 1169.93 C 1237.87 1172.91 1238.63 1177.94 1238.66 1182.28 C 1238.73 1193.8 1235.35 1208.64 1238.75 1219.63 L 1240.16 1220.75 C 1235.72 1225.27 1230.69 1229.18 1225.82 1233.21 C 1226.26 1211.69 1226.08 1190.12 1226.19 1168.59 z"/>
<path transform="translate(0,0)" fill="rgb(220,215,214)" d="M 1389.69 1229.38 L 1392.46 1231.31 C 1400.89 1231.01 1407.07 1224.27 1414.26 1220.5 L 1415.2 1220.02 C 1415.46 1224.21 1416.17 1228.88 1415.61 1233.03 C 1412.88 1233.87 1410.01 1236.32 1407.49 1237.78 C 1401.83 1241.05 1395.47 1243.32 1389.08 1244.65 C 1381.56 1246.22 1371.46 1247.15 1364.96 1242.42 C 1360.98 1239.53 1360.16 1237.5 1359.34 1232.89 C 1370.69 1234.59 1378.94 1232.68 1389.69 1229.38 z"/>
<path transform="translate(0,0)" fill="rgb(220,215,214)" d="M 1498.88 1163.29 C 1503.22 1164.66 1505.8 1165.72 1507.9 1170.1 C 1514.98 1184.83 1503.16 1209.73 1508.26 1222.8 C 1507.41 1223.13 1505.83 1223.8 1504.95 1223.9 C 1502.63 1224.15 1501.09 1222.98 1499.63 1221.34 C 1492.99 1213.87 1498.98 1176.04 1498.89 1164.73 L 1498.88 1163.29 z"/>
<path transform="translate(0,0)" fill="rgb(220,215,214)" d="M 1366.94 1164.25 C 1370.14 1164.84 1375.83 1165.42 1377.61 1168.67 C 1381.07 1175.04 1374.93 1209.74 1374.9 1219.52 C 1372.03 1218.03 1369.5 1216.51 1367.66 1213.76 C 1359.39 1201.48 1364.61 1178.2 1366.94 1164.25 z"/>
<path transform="translate(0,0)" fill="rgb(220,215,214)" d="M 946.947 1164.18 C 950.222 1164.84 955.849 1165.47 957.76 1168.73 C 960.916 1174.11 954.913 1210.36 954.895 1219.52 C 952.027 1218.03 949.502 1216.5 947.657 1213.76 C 939.373 1201.45 944.644 1178.11 946.947 1164.18 z"/>
<path transform="translate(0,0)" fill="rgb(220,215,214)" d="M 1086.94 1164.17 C 1090.13 1164.81 1095.82 1165.45 1097.58 1168.69 C 1100.61 1174.23 1094.92 1210.11 1094.9 1219.52 C 1092.03 1218.03 1089.5 1216.5 1087.66 1213.76 C 1079.37 1201.45 1084.65 1178.11 1086.94 1164.17 z"/>
<path transform="translate(0,0)" fill="rgb(220,215,214)" d="M 988.701 1225.2 C 990.203 1228.79 991.738 1231.55 994.221 1234.55 C 986.653 1238.54 979.905 1242.16 971.52 1244.16 C 963.18 1246.14 952.32 1247.15 944.89 1242.19 C 940.911 1239.53 940.116 1237.37 939.321 1232.89 C 950.443 1234.48 959.157 1232.68 969.681 1229.36 C 971.269 1230.53 971.866 1230.8 973.679 1231.31 C 979.02 1230.56 984.276 1228.3 988.701 1225.2 z"/>
<path transform="translate(0,0)" fill="rgb(220,215,214)" d="M 1156.86 1234.98 C 1169.42 1237.15 1180.08 1238.54 1191.13 1230.54 C 1195.12 1227.66 1198.74 1223.93 1202.11 1220.36 C 1202 1229.11 1201.85 1237.85 1201.65 1246.6 C 1191.56 1249.44 1174.99 1249.69 1165.51 1244.98 C 1160.63 1242.55 1158.49 1240.14 1156.86 1234.98 z"/>
<path transform="translate(0,0)" fill="rgb(220,215,214)" d="M 1175.02 1224.94 C 1173.98 1224.96 1173.05 1225.02 1172.01 1224.82 C 1168.97 1224.21 1166.8 1221.57 1165.42 1218.97 C 1159.96 1208.65 1160.02 1186.25 1163.62 1175.22 C 1167.56 1177.83 1174.47 1175.03 1175.33 1180.79 C 1177.32 1194.18 1169.41 1212.13 1175.02 1224.94 z"/>
<path transform="translate(0,0)" fill="rgb(255,255,255)" d="M 1235.06 1241.79 C 1242.04 1232.27 1256.04 1218.95 1266.22 1213.22 L 1267.17 1213.88 L 1267.35 1221.26 C 1258.88 1225.13 1244.48 1242.87 1237.17 1242.87 L 1235.06 1241.79 z"/>
<path transform="translate(0,0)" fill="rgb(255,255,255)" d="M 1109.69 1229.38 C 1120.75 1223.03 1126.33 1216.31 1133.95 1206.45 L 1135.35 1206.96 L 1138.04 1212.86 C 1136.85 1218.35 1128.96 1224.17 1124.4 1227.04 C 1121.19 1229.05 1116.47 1231.78 1112.51 1231.22 C 1111.27 1231.04 1110.6 1230.15 1109.69 1229.38 z"/>
<path transform="translate(0,0)" fill="rgb(255,255,255)" d="M 1389.69 1229.38 C 1401.4 1222.51 1408.5 1214.59 1416.02 1203.41 L 1415.2 1220.02 L 1414.26 1220.5 C 1407.07 1224.27 1400.89 1231.01 1392.46 1231.31 L 1389.69 1229.38 z"/>
<path transform="translate(0,0)" fill="rgb(255,255,255)" d="M 969.681 1229.36 C 975.311 1226.23 980.205 1220.05 986.225 1218.4 L 987.899 1219.6 L 988.701 1225.2 C 984.276 1228.3 979.02 1230.56 973.679 1231.31 C 971.866 1230.8 971.269 1230.53 969.681 1229.36 z"/>
<path transform="translate(0,0)" fill="rgb(255,255,255)" d="M 1160.05 1437.07 C 1154.42 1431.5 1150.94 1424.64 1149.18 1416.95 C 1140.79 1380.25 1162.28 1335.7 1181.2 1305.55 C 1184.54 1300.22 1189.83 1290.2 1196.27 1288.73 C 1200.02 1293.68 1198.09 1309.75 1197.31 1315.77 C 1196.37 1340.59 1190.84 1423.98 1173.57 1438.89 C 1171.73 1440.48 1169.44 1441.68 1166.93 1441.35 C 1164.36 1441 1161.93 1438.74 1160.05 1437.07 z"/>
<path transform="translate(0,0)" fill="rgb(220,215,214)" d="M 1160.05 1437.07 C 1154.42 1431.5 1150.94 1424.64 1149.18 1416.95 C 1140.79 1380.25 1162.28 1335.7 1181.2 1305.55 C 1184.54 1300.22 1189.83 1290.2 1196.27 1288.73 C 1200.02 1293.68 1198.09 1309.75 1197.31 1315.77 C 1190.57 1317.99 1183.99 1332.37 1180.76 1338.72 C 1170.2 1359.48 1159.48 1386.54 1159.47 1410.23 C 1159.47 1418.37 1162.28 1429.51 1160.05 1437.07 z"/>
<path transform="translate(0,0)" fill="rgb(220,215,214)" d="M 873.469 1197.47 C 876.387 1190.07 879.826 1183.02 885.516 1177.33 C 891.475 1171.36 899.499 1167.86 908.008 1168.27 C 911.684 1168.44 916.328 1169.81 918.449 1173.09 C 920.218 1175.83 918.64 1178.22 917.74 1180.98 C 911.498 1196.67 899.922 1217.11 884.778 1225.79 C 883.762 1226.23 882.782 1226.56 881.687 1226.75 C 878.795 1227.27 875.895 1227.2 873.562 1225.11 C 870.587 1222.44 870.577 1218.52 870.513 1214.86 C 870.9 1208.77 871.908 1203.36 873.469 1197.47 z"/>
<path transform="translate(0,0)" fill="rgb(255,255,255)" d="M 884.778 1225.79 C 883.658 1225 883.409 1225.16 883.061 1224.01 C 881.489 1218.81 885.498 1208.71 887.786 1203.83 C 892.122 1194.59 899.822 1184.07 910.013 1180.94 C 913.184 1179.97 914.792 1179.57 917.74 1180.98 C 911.498 1196.67 899.922 1217.11 884.778 1225.79 z"/>
<path transform="translate(0,0)" fill="rgb(198,187,182)" d="M 873.469 1197.47 C 876.461 1198.93 877.351 1198.93 878.873 1202 C 878.524 1206.2 874.751 1209.46 872.138 1212.55 C 871.091 1213.79 871.476 1213.3 870.513 1214.86 C 870.9 1208.77 871.908 1203.36 873.469 1197.47 z"/>
<path transform="translate(0,0)" fill="rgb(220,215,214)" d="M 1022.44 1226.96 C 1022.19 1226.99 1021.94 1227.03 1021.68 1227.04 C 1018.73 1227.2 1015.78 1227.15 1013.59 1224.88 C 1011.09 1222.28 1010.4 1218.65 1010.31 1215.17 C 1009.95 1202.5 1016.91 1185.94 1025.7 1176.95 C 1030.63 1171.91 1037.17 1168.19 1044.4 1168.48 C 1049.13 1168.67 1055.37 1169.53 1058.73 1173.15 C 1059.71 1176.49 1058.82 1177.73 1057.74 1180.98 C 1051.37 1196.98 1038.82 1219.36 1022.44 1226.96 z"/>
<path transform="translate(0,0)" fill="rgb(255,255,255)" d="M 1022.44 1226.96 C 1021.85 1219.62 1025.09 1210.35 1028.1 1203.71 C 1031.96 1195.19 1039.36 1184.09 1048.75 1181.23 C 1052.15 1180.19 1054.54 1179.48 1057.74 1180.98 C 1051.37 1196.98 1038.82 1219.36 1022.44 1226.96 z"/>
<path transform="translate(0,0)" fill="rgb(220,215,214)" d="M 1304.78 1225.79 C 1301.8 1226.81 1298.72 1227.87 1295.69 1226.21 C 1293.27 1224.87 1292.16 1222.51 1291.49 1219.96 C 1288.7 1209.26 1293.49 1195.13 1298.92 1185.77 C 1303.31 1178.21 1309.68 1170.96 1318.55 1168.93 C 1325.39 1167.37 1333.2 1169.29 1338.99 1173.1 C 1340.06 1176.31 1338.86 1177.85 1337.75 1180.99 C 1331.5 1196.61 1319.9 1217.18 1304.78 1225.79 z"/>
<path transform="translate(0,0)" fill="rgb(255,255,255)" d="M 1304.78 1225.79 L 1303.42 1224.85 C 1301.48 1220.62 1304.41 1212.32 1306.06 1207.95 C 1310.05 1197.35 1317.8 1185.79 1328.62 1181.45 C 1331.93 1180.12 1334.54 1179.5 1337.75 1180.99 C 1331.5 1196.61 1319.9 1217.18 1304.78 1225.79 z"/>
<path transform="translate(0,0)" fill="rgb(73,33,8)" d="M 1292.63 1276.02 L 1306.31 1275.54 L 1286.72 1300.64 C 1290.67 1307.43 1295.17 1313.98 1299.41 1320.6 C 1301.52 1324.48 1304.36 1328.1 1306.89 1331.73 C 1302.14 1331.92 1297.37 1331.87 1292.62 1331.93 C 1289.17 1325.93 1285.25 1317.18 1279.99 1312.71 C 1278.2 1311.19 1277.92 1311.24 1275.72 1311.46 C 1271.35 1316.79 1272.95 1325.43 1273.14 1331.91 L 1261 1331.97 L 1261.06 1275.88 C 1264.42 1275.64 1267.52 1275.15 1270.73 1276.41 C 1275.64 1281.98 1273.03 1294 1272.8 1301.12 L 1292.63 1276.02 z"/>
<path transform="translate(0,0)" fill="rgb(73,33,8)" d="M 1620.22 1272.07 C 1624.49 1271.95 1627.61 1271.39 1631.13 1274.06 C 1632.08 1276.2 1632.41 1277.47 1632.24 1279.83 C 1631.94 1284.05 1631.91 1288.25 1631.85 1292.49 C 1637.25 1289.82 1644.21 1287.43 1650.26 1289.08 C 1653.37 1289.92 1655.85 1292 1657.3 1294.87 C 1659.99 1300.2 1661.9 1325.38 1659.49 1330.82 C 1659.05 1331.79 1659.02 1331.69 1657.94 1331.89 C 1654.67 1332.5 1651.88 1331.96 1649.21 1329.98 C 1646.71 1325.36 1648.13 1317.08 1648.22 1311.77 C 1648.23 1308.83 1648.59 1304.57 1647.37 1301.84 C 1646.3 1299.43 1643.5 1298.22 1641.08 1297.65 C 1638.7 1297.1 1637.39 1297.68 1635.4 1298.87 C 1630.8 1305.57 1632.55 1315.94 1632.06 1323.78 C 1631.84 1327.24 1631.46 1329.59 1628.71 1331.97 C 1625.82 1332.97 1624.26 1332.51 1621.45 1331.71 C 1618.35 1326.74 1620.21 1281.13 1620.22 1272.07 z"/>
<path transform="translate(0,0)" fill="rgb(73,33,8)" d="M 1740.85 1288.31 C 1746.11 1288.46 1751.57 1289.11 1755.57 1292.86 C 1761.16 1298.08 1761.17 1306.01 1761.56 1313.07 C 1754.24 1313.44 1744.41 1311.83 1737.52 1314.01 C 1735.34 1314.69 1735.13 1314.94 1734.19 1316.87 C 1735.18 1319.36 1736.45 1320.97 1738.78 1322.31 C 1744.61 1325.67 1752.73 1322.67 1758.76 1321.27 C 1759.17 1324.4 1758.99 1326.74 1757.52 1329.6 C 1755.84 1331.02 1754.54 1331.7 1752.41 1332.15 C 1745.28 1333.67 1736.97 1333.12 1730.77 1329 C 1725.99 1325.83 1722.95 1320.94 1721.79 1315.37 C 1720.45 1308.85 1721.34 1301.97 1725.26 1296.49 C 1729.37 1290.76 1734.12 1289.26 1740.85 1288.31 z"/>
<path transform="translate(0,0)" fill="rgb(255,255,255)" d="M 1741.23 1295.78 C 1742.65 1296.27 1744.18 1296.78 1745.46 1297.58 C 1747.69 1298.97 1749.49 1300.89 1750.05 1303.48 L 1749.02 1304.9 L 1745.25 1305.47 C 1742.42 1305.49 1738.57 1305.92 1736.04 1304.65 C 1734.65 1303.97 1735.04 1303.85 1734.56 1302.17 C 1736.09 1299.1 1738.5 1297.68 1741.23 1295.78 z"/>
<path transform="translate(0,0)" fill="rgb(73,33,8)" d="M 1823.7 1288.73 C 1831.46 1288.98 1832.22 1292.21 1834.49 1292.14 C 1840.47 1291.94 1846.63 1287.11 1852.73 1288.08 C 1855.43 1288.51 1857.38 1289.71 1858.95 1291.93 C 1864.48 1299.81 1864.29 1321.66 1862.35 1331.05 C 1859.24 1332.56 1854.54 1331.97 1851.12 1331.98 L 1851.14 1312.45 C 1851.16 1310.19 1851.36 1307.59 1850.96 1305.36 C 1850.23 1301.34 1847.82 1299.29 1844.66 1296.98 C 1842.78 1296.63 1841.95 1296.02 1840.18 1297.28 C 1832.5 1302.73 1834.77 1323.46 1834.85 1331.89 L 1823.09 1331.96 C 1823.03 1317.64 1822.54 1303.01 1823.7 1288.73 z"/>
<path transform="translate(0,0)" fill="rgb(73,33,8)" d="M 1447.32 1279.91 C 1447.58 1279.89 1447.83 1279.87 1448.09 1279.87 C 1450.94 1279.82 1451.76 1279.52 1453.88 1281.47 C 1453.7 1283.88 1453.46 1285.52 1454.39 1287.81 C 1457.65 1289.72 1461.51 1288.72 1465.28 1289.48 C 1466.77 1291.39 1466.86 1291.96 1467.26 1294.37 L 1465.69 1296.52 C 1461.86 1298.3 1458.2 1297.92 1454.09 1297.83 C 1453.96 1303.7 1452.95 1311.92 1454.74 1317.46 C 1455.72 1320.52 1456.66 1321.83 1459.5 1323.3 C 1461.59 1323.05 1463.62 1322.87 1465.73 1322.84 C 1467.31 1325.53 1466.74 1327.35 1466.57 1330.42 C 1461.84 1332.39 1454.53 1334.27 1449.63 1331.86 C 1438.12 1326.19 1445.22 1308.64 1442.02 1299.51 C 1441.51 1298.04 1438.48 1297.27 1437.06 1296.64 C 1436.97 1295.97 1436.49 1295.25 1436.78 1294.65 C 1438.69 1290.62 1444.14 1286.04 1446.7 1281.15 C 1446.91 1280.74 1447.11 1280.32 1447.32 1279.91 z"/>
<path transform="translate(0,0)" fill="rgb(73,33,8)" d="M 1543.71 1288.37 C 1548.16 1288.35 1552.78 1288.65 1556.93 1290.3 C 1558.22 1292.38 1558.53 1293.34 1558.45 1295.8 C 1554.57 1300.49 1546.19 1297.49 1540.59 1299.2 C 1539.47 1300.5 1538.36 1301.77 1537.72 1303.4 C 1536.2 1307.28 1536.26 1314.49 1537.76 1318.34 C 1541.19 1327.16 1551.45 1319.62 1557.73 1322 L 1558.65 1325.58 C 1558.24 1326.61 1557.77 1328.08 1557.11 1329.01 C 1555.52 1331.29 1551.41 1332.9 1548.74 1333.41 C 1543.47 1334.4 1538.15 1332.69 1533.84 1329.63 C 1528.48 1325.84 1525.54 1320.14 1524.55 1313.74 C 1523.64 1307.95 1524.03 1301.32 1527.77 1296.54 C 1532.02 1291.09 1537.12 1289.39 1543.71 1288.37 z"/>
<path transform="translate(0,0)" fill="rgb(220,215,214)" d="M 1510.14 1234.51 C 1512.87 1235.85 1514.72 1236.5 1517.69 1235.29 C 1532.07 1229.46 1541.06 1203.44 1550 1191.61 C 1546.97 1210.69 1537.77 1234.48 1521.42 1246.09 C 1515.87 1250.04 1509.49 1252.04 1502.7 1250.74 C 1498.62 1249.96 1495.02 1247.99 1492.67 1244.47 C 1491.62 1242.89 1491.26 1241.08 1490.82 1239.27 C 1498.61 1239.48 1503.35 1237.94 1510.14 1234.51 z"/>
<path transform="translate(0,0)" fill="rgb(73,33,8)" d="M 1364.27 1288.91 C 1367.46 1288.93 1372.89 1288.29 1375.42 1290.33 C 1377.29 1303.62 1375.97 1318.43 1375.87 1331.89 C 1372.45 1332.03 1369.2 1331.99 1365.8 1331.64 C 1362.73 1327.82 1364.24 1295.95 1364.27 1288.91 z"/>
<path transform="translate(0,0)" fill="rgb(73,33,8)" d="M 1367.71 1272.31 C 1370.69 1271.06 1374.11 1272.41 1375.44 1275.35 C 1376.78 1278.29 1375.53 1281.76 1372.63 1283.18 C 1370.67 1284.13 1368.35 1283.95 1366.58 1282.7 C 1364.8 1281.45 1363.84 1279.33 1364.07 1277.17 C 1364.31 1275.01 1365.7 1273.14 1367.71 1272.31 z"/>
</svg>