<svg version="1.2" xmlns="http://www.w3.org/2000/svg" viewBox="0 0 500 500" width="500" height="500">
	<title>image</title>
	<style>
		.s0 { fill: #492108 } 
		.s1 { fill: #dcd7d6 } 
		.s2 { fill: #ffffff } 
		.s3 { fill: #c6bbb6 } 
	</style>
	<path class="s0" d="m333.4 128.1c10.8-0.4 21.6 1.4 31.7 5.4 18.9 7.8 34 22.7 42 41.6 7.9 19 7.9 40.4 0.2 59.5-8 19.3-23.5 33.9-42.5 41.8q-0.4-7.7-0.8-15.5c-0.2-3.3-0.5-6.7-0.3-10 0.7-8.1 7.2-8.3 12.2-12.7 3.9-3.4 5.2-8.2 5.5-13.3 0.7-11.2-2.6-25.2-10.2-33.8-2.7-3-6.2-5.6-10.4-5.8-3.7-0.2-7.3 1.6-9.9 4-7.9 7.2-11.4 20.3-11.8 30.5-0.4 8.3 0.7 16.2 8.5 20.5 2.3 1.3 4.9 2.4 6.7 4.4 1.2 1.4 1.9 3.1 2.2 4.9 0.6 3.8 0.1 8.1-0.1 12l-0.8 17.9c-14.6 3.1-24.7 3-39.3-0.1q-0.2-1.5-0.2-3c-0.4-5.5-1.6-21.6-0.7-26.1 0.5-2 1.6-3.9 3.1-5.2 3.2-2.8 7.6-3.6 10.4-7 5.3-6.1 4-16.2 3.4-23.5-0.3-3.2-1.8-24.9-2.3-26-0.2-0.4-0.3-0.5-0.7-0.6-0.7-0.1-1.7 0-2.2 0.4-0.5 3.2-0.2 6.9-0.2 10.2l-0.1 23.9-5 0.5c-0.4-13-1.9-26.1-2.7-39.1l-3.3 0.4-0.6 39.2h-5.6l-0.8-39.2c-1.1-0.1-2.2-0.3-3.3-0.4-0.6 13-1.8 26-2.5 39l-4.9-0.4-0.2-22.2c0-4 0.2-8.2-0.2-12.1-0.9-0.4-1.9-0.2-2.9-0.2-0.9 5.6-1.3 11.3-2 17-0.7 6.2-1.8 12.6-1.8 18.9 0 6.4 1.2 13.9 7.5 17.2 2.5 1.4 5.4 2.5 7.4 4.6 1.5 1.6 2.2 3.4 2.5 5.5 0.7 3.5 0.2 7.2 0.1 10.8q-0.4 7.2-0.8 14.4c-8.1-2.9-16.4-8.1-22.8-13.9-14.7-13.3-24.4-32-25.3-52-1.1-22.3 4.9-41.1 20-57.6 14-15.4 33.1-23.8 53.8-24.8z"/>
	<path class="s0" d="m151.3 298.2c2.6-4.4 4.1-9.9 5.6-14.8q3.8-12.4 7.3-24.9c5.8-20.6 11.6-41.3 19.2-61.4 1.1-2.9 3.5-9.4 6.7-10.7 0.6-0.2 1.2-0.2 1.8 0.1 1 0.6 1.3 1.6 1.6 2.6 1.1 0.3 1.9 0.6 2.6 1.6 1.4 2.4 0.4 14 0.2 17-1.3 18.6-3.7 37.1-5.8 55.5q-4.9 41.2-8.2 82.6c-0.2 3.1-1.3 9.3-0.9 12.1 0 0.4 0.2 0.6 0.5 0.9 3.2-5.7 5.7-12.1 8.5-18 6.3-13.6 12.6-27 20.7-39.7 2-3.2 3.4-6.4 6.3-8.9 2.4-2 6.4-4.2 9.5-3.3 1.6 0.4 2.9 1.1 4.5 1.2 0.7-0.7 1.4-1.5 2.4-1.8 0.7-0.2 1.5-0.1 2.1 0.3 0.8 0.6 0.8 1.5 0.8 2.4 0.9 0.2 2.3 0.4 2.7 1.2 0.8 1.3-0.7 10.4-0.7 12.7 0.7 0.1 1.3 0.1 2 0 4.3-0.9 6.7-6.3 8.8-9.5 2.8-4.3 8-7.4 13.1-6.3 1.1 0.2 2.9 1.2 3.9 1 0.2-0.4 0.5-0.8 0.8-1.2 0.5-0.4 1.5-0.7 2.1-0.7 0.7 0 1.3 0.2 1.8 0.7 0.5 0.6 0.5 1.4 0.5 2.1 0.8 0.2 2.3 0.4 2.7 1.2 0.8 1.4-0.7 10.3-0.7 12.7 0.6 0.1 1.1 0.1 1.6 0.1 3.2-0.5 6.2-4.3 8-6.8 0.1-1.7 0.2-3.5 1.2-5 0.8-1.2 2-2.1 3.4-2.3 1.1-0.2 1.9 0.2 2.8 0.8 0.4 0.8 0.3 1.3 0.2 2.1 1 0.7 2.7 0 2.9 1.4 0.5 3.3-1.4 7.8 0 11 7.5-3.2 5.1-10 7.6-15.5 0.3-0.8 0.9-1.6 1.8-1.9 0.8-0.2 1.9 0.1 2.5 0.6 0.8 0.7 0.8 1.8 0.8 2.7 0.8 0 1.5-0.1 2.1 0.4 0.9 0.7 1.1 2 1.1 3.1 0 2.9-0.9 6.6 0 9.3l0.3 0.3c2.3-1.9 4.7-3.6 6.8-5.7 3.7-3.9 2.9-6.6 9.1-9.6 3.6-1.8 6.7-0.9 10.2 0.3 0.6-0.1 0.9-0.8 1.2-1.3 0.7-0.4 1.4-0.8 2.1-0.7 0.7 0 1.3 0.2 1.8 0.7 0.5 0.7 0.5 1.3 0.5 2.2 0.8 0.1 2.3 0.3 2.7 1.1 0.9 1.6-0.7 10.2-0.7 12.7 0.6 0.1 1.1 0.1 1.6 0.1 3.4-0.5 6.5-4.7 8.4-7.2 0-2.1-0.9-6.2 0.3-7.9 0.4-0.5 1-0.7 1.6-0.8 0.6 0 1.3 0.2 1.7 0.6 1.4 1.2 1.2 4.7 1.3 6.5 2.6-3.3 5.3-7.4 9.5-8.8 1.3-0.4 2.8-0.7 4.1 0 1.4 0.7 2 2 2.5 3.4 1.1 0.4 1.7 0.6 2.3 1.7 1.7 3.7-1.2 9.9 0.1 13.2 3.6-2.8 4.9-7.5 7.9-10.8-1.1 5.3-3.1 10.3-7.5 13.7-1.7 0.9-2.8 1.3-4.8 1.2-0.9-0.4-1.7-0.9-2.3-1.7-2.5-3.2-1.7-8.3-1.3-12.1-1.7 0.7-2.8 3.4-3.5 4.9-1.2 2.7-3.6 11.2-6 12-0.6 0.2-1.3 0.1-1.8-0.2-0.6-0.3-0.8-0.6-1-1.2-0.1-0.4 0-0.7-0.1-1.1l-0.2-0.2c-0.4-0.1-1-0.2-1.4-0.4-0.7-0.3-0.9-0.9-1.2-1.5-0.7 0.2-1.4 0.8-2 1.1-1.4 0.9-3 1.4-4.6 1.8-1.9 0.4-4.4 0.6-6.1-0.6-1-0.7-1.2-1.2-1.4-2.4-1.1-0.4-1.9-1-2.9-1.7q-0.1 0.2-0.3 0.3c-2.8 3-4 6.5-8.9 6.7-2 0.1-4.6-0.4-6.1-1.9-0.4-0.3-0.4-1-0.5-1.5-1.3-0.4-2.4-1.4-3.3-2.3-4 2.8-7.8 6.5-8.7 11.5-0.7 3.8-0.4 8.1-0.4 12.1-0.1 8.9-0.3 28-8.4 33.4-1.8 1.3-4.1 1.9-6.3 1.4-1.8-0.4-4.6-0.8-5.5-2.6-0.2-0.3-0.2-0.6-0.3-0.9-1.5-0.8-2.8-1.8-3.8-3.2-7.6-10.4 1.1-27.3 7.5-36.1 1.9-2.6 6.7-7.4 8-9.6 0.3-0.6 0.4-1.4 0.5-2.1-2.5 0.7-6.7 0.7-9-0.5-1.2-0.6-1.8-1.2-2.2-2.5-1.4-0.7-2.5-1.7-3.5-2.9-2.5 3.1-5.6 5.1-9.6 5.6-1.6 0.2-3.5 0.2-4.9-0.8-0.9-0.8-1.2-1.2-1.4-2.4-1.1-0.4-1.9-1-2.9-1.7q-0.2 0.2-0.3 0.3c-2.8 3.1-4.1 6.5-9 6.7-1.8 0-4.5-0.4-5.8-1.7-0.6-0.5-0.6-1-0.7-1.7-1-0.4-1.7-0.9-2.5-1.5-1.9 1-3.6 1.9-5.7 2.4-2.1 0.5-4.8 0.8-6.7-0.5-1-0.6-1.2-1.2-1.4-2.3-1.1-0.4-2-1-2.9-1.7q-0.2 0.2-0.3 0.3c-2.8 3.1-4.1 6.5-9 6.7-1.9 0.1-4.6-0.4-6-1.8-0.4-0.5-0.5-1-0.6-1.6-0.5-0.2-1.1-0.6-1.6-0.8-4.2 5.3-7.8 15-10.5 21.4-4.2 9.7-8.2 19.5-12.5 29.1-1.9 4.4-3.8 9.6-6.7 13.4-1 1.4-2.4 2.7-4.2 2.9-1.1 0.1-2.3-0.6-3.1-1.3-0.6-0.5-0.7-1.1-1.1-1.8q0 0-0.1-0.1c-0.7-0.2-1.4-0.5-2-1.1-2-2.2-1.5-12.3-1.4-15.5 0.3-10.6 1.5-21.4 2.4-32 3-36.7 8.2-73.2 11.4-109.9l-0.3-0.6h-0.7c-1.2 1.9-2.7 7.9-3.6 10.6-5 15.5-9.5 31.1-14.1 46.8-3.2 10.6-6.9 25.8-12.4 35.2-0.9 1.5-1.9 2.9-3.7 3.4-1.3 0.3-2.5 0-3.6-0.7-0.9-0.6-1.2-1.3-1.5-2.3-0.5-0.2-1.1-0.4-1.5-0.7-1.2-0.7-1.5-1.9-1.8-3.1-1.3-6.8-1.5-14.1-2.2-21-1.2-13.4-2.7-26.9-5.5-40-0.4 0.2-0.7 0.4-0.9 0.8-1.6 3.1-3.2 12.7-4.1 16.7q-4.5 22.6-8.3 45.4c-1.4 7.8-2.3 15.9-4.3 23.4-0.5 1.8-1.3 5-2.9 6-0.6 0.4-1.2 0.5-1.9 0.4-1.1-0.3-2.4-1.2-3-2.2q-0.2-0.4-0.4-0.9c-0.9-0.4-1.7-0.7-2.3-1.6-2.9-5 0-97.5 0.4-110.4 0.1-4.1-0.4-11 0.4-14.6 0.2-0.8 0.5-1.2 1.2-1.6 0.9-0.2 1.6 0 2.3 0.5 1.2 0.8 1.2 1.6 1.4 2.9 0.5 0 1.5-0.1 1.9 0.2 1.3 1.3 1.2 6.1 1.2 7.9 0.2 7.3-0.4 14.6-0.6 21.9q-0.8 24.5-1.1 48.9c0 3.4-0.6 7.1-0.1 10.4 0.1 0.9 0.4 1.2 1.1 1.7 2.5-15.1 5-30.1 8.6-45 1.2-5 4.8-20.1 9.1-22.5 0.7-0.5 1.6-0.6 2.4-0.4 1.7 0.6 2.7 2.3 3.4 3.8 1.1 0.3 1.5 0.5 2.1 1.5 5.1 8.5 7.4 42 8.6 53.3 0.2 2.3 0.4 8 1.4 9.7z"/>
	<path class="s1" d="m193.5 189.1c1.1 0.3 1.9 0.6 2.6 1.6 1.4 2.4 0.4 14 0.2 17-1.3 18.6-3.7 37.1-5.8 55.5q-4.9 41.2-8.2 82.6c-0.2 3.1-1.3 9.3-0.9 12.1 0 0.4 0.2 0.6 0.5 0.9-0.5 1.5-1.8 4.7-3 5.6l-0.4-0.2c-1.2-3 0.5-17.9 0.8-21.8q3.6-44.6 9.1-89.1 2-17.8 3.8-35.7c0.9-9.3 2.2-19.2 1.3-28.5z"/>
	<path class="s1" d="m187.8 196.7c0.3 5.1-0.3 12.7-1.2 17.7l-0.3-0.6h-0.7c-1.2 1.9-2.7 7.9-3.6 10.6-5 15.5-9.5 31.1-14.1 46.8-3.2 10.6-6.9 25.8-12.4 35.2-0.9 1.5-1.9 2.9-3.7 3.4-1.3 0.3-2.5 0-3.6-0.7-0.9-0.6-1.2-1.3-1.5-2.3 0.8-0.1 1.8-0.1 2.6-0.3 3.3-0.9 6.4-10 7.6-13.1 3.3-8.7 5.7-17.8 8.4-26.7q6.7-23.4 14.1-46.6c2.3-7.2 4.9-16.8 8.4-23.4z"/>
	<path class="s1" d="m109.9 331.6c0.7 0 1.6-0.1 2.2-0.4 1.8-0.8 2.6-4.1 3-5.8 2-7.4 2.9-15.3 4.2-22.9q3.8-22.6 8.3-45c1.3-6.7 2.4-14.2 5.1-20.5 0.3-0.6 0.5-1 1.1-1.3q0.2 0.1 0.3 0.1c1.1 1 1.4 4.6 1.6 6.2-0.4 0.2-0.7 0.4-0.9 0.8-1.6 3.1-3.2 12.7-4.1 16.7q-4.5 22.6-8.3 45.4c-1.4 7.7-2.3 15.8-4.3 23.4-0.5 1.8-1.3 5-2.9 6-0.6 0.4-1.2 0.5-1.9 0.3-1.1-0.2-2.4-1.1-3-2.1q-0.2-0.4-0.4-0.9z"/>
	<path class="s1" d="m113.3 206.8c0.5 0 1.5-0.1 1.9 0.2 1.3 1.3 1.2 6.1 1.2 7.9 0.2 7.3-0.4 14.6-0.6 21.9q-0.8 24.5-1.1 48.9c0 3.4-0.6 7.1-0.1 10.4 0.1 0.9 0.4 1.2 1.1 1.7-0.2 2.6-2 15.3-3.2 17.1l-0.3-0.1c-2.3-4.9 1-83.8 1.2-97 0.1-3.7 0-7.3-0.1-11z"/>
	<path class="s1" d="m211.7 305.2c0.7 1.7 1.3 2.8 2.7 4.1-4.2 5.3-7.8 15-10.5 21.4-4.2 9.7-8.2 19.5-12.5 29.1-1.9 4.4-3.8 9.6-6.7 13.4-1 1.4-2.4 2.7-4.2 2.9-1.1 0.1-2.3-0.6-3.1-1.3-0.6-0.5-0.7-1.1-1.1-1.8q0 0-0.1-0.1c0.9 0 1.8-0.1 2.7-0.4 1.7-0.5 2.7-1.9 3.5-3.3 3.9-6.4 6.7-13.8 9.7-20.7 6.2-14.6 11.9-29.4 19.6-43.3z"/>
	<path class="s1" d="m316.8 305.3l1 2.5c-4 2.8-7.8 6.5-8.7 11.5-0.7 3.8-0.4 8.1-0.4 12.1-0.1 8.9-0.3 28-8.4 33.4-1.8 1.3-4.1 1.9-6.3 1.4-1.8-0.4-4.6-0.8-5.5-2.6-0.2-0.3-0.2-0.6-0.3-0.9 1.2 0.3 2.6 0.7 3.9 0.7 13.4-0.1 13.5-24.9 13.6-34.4 0-3.7-0.3-7.8 0.2-11.5 0.3-2.5 1.1-5.2 2.9-7.1l0.5 0.3c1.8 0 5.4-4.4 7.5-5.4z"/>
	<path class="s1" d="m139.2 233.7c1.1 0.3 1.5 0.5 2.1 1.5 5.1 8.5 7.4 42 8.6 53.3 0.2 2.3 0.4 8 1.4 9.7-0.4 0.6-0.6 1-1.3 1.1-1-0.7-1.3-2.1-1.6-3.1-1.2-5.2-1.5-10.9-2-16.2-1-9.7-1.9-19.5-3.3-29.1-0.9-5.9-2.1-11.5-3.9-17.2z"/>
	<path class="s1" d="m356.5 310.2c0.8-0.3 1.3-0.6 1.8-1.3 1.1-1.6 1.7-3.7 2.4-5.5 1.3-3.6 2.8-7.7 5.2-10.8 0.7-0.9 1.6-1.8 2.8-1.9q0.1 0.1 0.2 0.2c0.8 1 0.4 3.9 0.2 5.1-1.7 0.7-2.8 3.4-3.5 4.9-1.2 2.7-3.6 11.2-6 12-0.6 0.2-1.3 0.1-1.8-0.2-0.6-0.3-0.8-0.6-1-1.2 0-0.4 0-0.7-0.1-1.1z"/>
	<path class="s1" d="m230.4 300.8c0.1 2.1 0.5 3.8 1.5 5.7q-0.2 0.2-0.3 0.3c-2.8 3.1-4.1 6.5-9 6.7-1.9 0.1-4.6-0.4-6-1.9-0.4-0.4-0.5-0.9-0.6-1.5 1.6 0.4 3.1 0.5 4.7 0.2 4.9-1.1 7.3-5.6 9.7-9.5z"/>
	<path class="s1" d="m335.4 300.8c0.2 2.1 0.5 3.8 1.5 5.7q-0.1 0.2-0.3 0.3c-2.8 3-4 6.5-8.9 6.7-2 0.1-4.6-0.5-6.1-1.9-0.4-0.3-0.4-1-0.5-1.5 1.5 0.4 3 0.5 4.6 0.2 4.9-1.1 7.3-5.6 9.7-9.5z"/>
	<path class="s1" d="m265.4 300.8c0.1 2.1 0.5 3.8 1.5 5.7q-0.2 0.2-0.3 0.3c-2.8 3.1-4.1 6.5-9 6.7-1.8 0-4.5-0.4-5.8-1.7-0.6-0.5-0.6-1-0.7-1.7 1.5 0.4 3 0.5 4.6 0.2 4.9-1.1 7.3-5.6 9.7-9.5z"/>
	<path class="s1" d="m284.5 303.2c0.2 1 0.7 1.7 1.2 2.6-2.5 3.1-5.6 5.1-9.6 5.6-1.6 0.2-3.5 0.2-4.9-0.8-0.9-0.8-1.2-1.2-1.4-2.4 2.9 0.4 4.9 0 7.6-0.9 0.2 0.2 0.4 0.5 0.7 0.5 1 0.1 2.2-0.5 3-1 1.1-0.8 3.1-2.2 3.4-3.6z"/>
	<path class="s1" d="m306.5 292.1c0.8 0 1.5-0.1 2.1 0.4 0.9 0.7 1.1 2 1.1 3.1 0 2.8-0.9 6.6 0 9.3l0.3 0.3c-1.1 1.1-2.3 2.1-3.5 3.1 0.1-5.4 0-10.8 0-16.2z"/>
	<path class="s1" d="m347.4 307.3l0.7 0.5c2.1 0 3.7-1.7 5.5-2.7l0.2-0.1c0.1 1.1 0.2 2.2 0.1 3.3-0.7 0.2-1.4 0.8-2 1.1-1.4 0.9-3 1.4-4.6 1.8-1.9 0.4-4.4 0.6-6.1-0.6-1-0.7-1.2-1.2-1.4-2.4 2.9 0.4 4.9 0 7.6-0.9z"/>
	<path class="s1" d="m374.7 290.8c1.1 0.4 1.8 0.6 2.3 1.7 1.7 3.7-1.2 9.9 0.1 13.2-0.2 0.1-0.6 0.2-0.9 0.3-0.5 0-0.9-0.3-1.3-0.7-1.7-1.8-0.2-11.3-0.2-14.1z"/>
	<path class="s1" d="m341.7 291.1c0.8 0.1 2.3 0.3 2.7 1.1 0.9 1.6-0.7 10.2-0.7 12.7-0.7-0.4-1.3-0.8-1.8-1.5-2.1-3-0.7-8.9-0.2-12.3z"/>
	<path class="s1" d="m236.7 291c0.9 0.2 2.3 0.4 2.7 1.2 0.8 1.3-0.7 10.4-0.7 12.7-0.7-0.4-1.3-0.8-1.8-1.5-2.1-3-0.7-8.9-0.2-12.4z"/>
	<path class="s1" d="m271.7 291c0.8 0.2 2.3 0.4 2.7 1.2 0.8 1.4-0.7 10.3-0.7 12.7-0.7-0.4-1.3-0.8-1.8-1.5-2.1-3-0.7-8.9-0.2-12.4z"/>
	<path class="s1" d="m247.2 306.3c0.4 0.9 0.7 1.6 1.4 2.3-1.9 1-3.6 1.9-5.7 2.4-2.1 0.5-4.8 0.8-6.7-0.5-1-0.6-1.2-1.2-1.4-2.3 2.8 0.4 5 0 7.6-0.9 0.4 0.3 0.6 0.4 1 0.5 1.4-0.2 2.7-0.7 3.8-1.5z"/>
	<path class="s1" d="m289.2 308.7c3.2 0.6 5.8 0.9 8.6-1.1 1-0.7 1.9-1.6 2.7-2.5q0 3.3-0.1 6.5c-2.5 0.8-6.7 0.8-9-0.4-1.2-0.6-1.8-1.2-2.2-2.5z"/>
	<path class="s1" d="m293.8 306.2c-0.3 0-0.5 0.1-0.8 0-0.8-0.1-1.3-0.8-1.6-1.5-1.4-2.5-1.4-8.1-0.5-10.9 1 0.7 2.7 0 2.9 1.4 0.5 3.3-1.4 7.8 0 11z"/>
	<path class="s2" d="m308.8 310.4c1.7-2.3 5.2-5.7 7.8-7.1l0.2 0.2v1.8c-2.1 1-5.7 5.4-7.5 5.4z"/>
	<path class="s2" d="m277.4 307.3c2.8-1.5 4.2-3.2 6.1-5.7l0.3 0.1 0.7 1.5c-0.3 1.4-2.3 2.8-3.4 3.6-0.8 0.5-2 1.1-3 1-0.3 0-0.4-0.3-0.7-0.5z"/>
	<path class="s2" d="m347.4 307.3c3-1.7 4.7-3.7 6.6-6.4l-0.2 4.1-0.2 0.1c-1.8 1-3.4 2.7-5.5 2.7z"/>
	<path class="s2" d="m242.4 307.3c1.4-0.7 2.7-2.3 4.2-2.7l0.4 0.3 0.2 1.4c-1.1 0.8-2.4 1.3-3.8 1.5-0.4-0.1-0.6-0.2-1-0.5z"/>
	<path class="s2" d="m290 359.3c-1.4-1.4-2.3-3.1-2.7-5.1-2.1-9.1 3.3-20.3 8-27.8 0.8-1.3 2.2-3.8 3.8-4.2 0.9 1.2 0.4 5.2 0.2 6.7-0.2 6.2-1.6 27.1-5.9 30.8-0.5 0.4-1 0.7-1.7 0.6-0.6-0.1-1.2-0.6-1.7-1z"/>
	<path class="s1" d="m290 359.3c-1.4-1.4-2.3-3.1-2.7-5.1-2.1-9.1 3.3-20.3 8-27.8 0.8-1.3 2.2-3.8 3.8-4.2 0.9 1.2 0.4 5.2 0.2 6.7-1.7 0.6-3.3 4.2-4.1 5.8-2.6 5.2-5.3 11.9-5.3 17.9 0 2 0.7 4.8 0.1 6.7z"/>
	<path class="s1" d="m218.4 299.4c0.7-1.9 1.6-3.6 3-5.1 1.5-1.5 3.5-2.3 5.6-2.2 0.9 0 2.1 0.4 2.6 1.2 0.5 0.7 0.1 1.3-0.2 1.9-1.5 4-4.4 9.1-8.2 11.2q-0.4 0.2-0.8 0.3c-0.7 0.1-1.4 0.1-2-0.4-0.8-0.7-0.8-1.7-0.8-2.6 0.1-1.5 0.4-2.9 0.8-4.3z"/>
	<path class="s2" d="m221.2 306.4c-0.3-0.1-0.3-0.1-0.4-0.4-0.4-1.3 0.6-3.8 1.1-5 1.1-2.4 3.1-5 5.6-5.8 0.8-0.2 1.2-0.3 1.9 0-1.5 4-4.4 9.1-8.2 11.2z"/>
	<path class="s3" d="m218.4 299.4c0.7 0.3 0.9 0.3 1.3 1.1-0.1 1.1-1 1.9-1.7 2.6-0.2 0.3-0.1 0.2-0.4 0.6 0.1-1.5 0.4-2.9 0.8-4.3z"/>
	<path class="s1" d="m255.6 306.7q-0.1 0.1-0.2 0.1c-0.7 0-1.5 0-2-0.6-0.6-0.6-0.8-1.5-0.8-2.4-0.1-3.2 1.6-7.3 3.8-9.6 1.3-1.2 2.9-2.2 4.7-2.1 1.2 0.1 2.7 0.3 3.6 1.2 0.2 0.8 0 1.1-0.3 1.9-1.6 4-4.7 9.6-8.8 11.5z"/>
	<path class="s2" d="m255.6 306.7c-0.1-1.8 0.7-4.1 1.4-5.8 1-2.1 2.8-4.9 5.2-5.6 0.8-0.3 1.4-0.4 2.2-0.1-1.6 4-4.7 9.6-8.8 11.5z"/>
	<path class="s1" d="m326.2 306.4c-0.8 0.3-1.5 0.6-2.3 0.2-0.6-0.4-0.9-1-1-1.6-0.7-2.7 0.5-6.2 1.8-8.6 1.1-1.8 2.7-3.7 4.9-4.2 1.7-0.4 3.7 0.1 5.1 1.1 0.3 0.8 0 1.2-0.3 1.9-1.5 4-4.4 9.1-8.2 11.2z"/>
	<path class="s2" d="m326.2 306.4l-0.3-0.2c-0.5-1 0.2-3.1 0.6-4.2 1-2.7 3-5.6 5.7-6.6 0.8-0.4 1.4-0.5 2.2-0.2-1.5 4-4.4 9.1-8.2 11.2z"/>
	<path class="s0" d="m323.2 319l3.4-0.1-4.9 6.3c1 1.7 2.1 3.3 3.2 4.9 0.5 1 1.2 1.9 1.8 2.8-1.2 0.1-2.4 0.1-3.5 0.1-0.9-1.5-1.9-3.7-3.2-4.8-0.4-0.4-0.5-0.4-1.1-0.3-1.1 1.3-0.7 3.5-0.6 5.1h-3v-14c0.8-0.1 1.6-0.2 2.4 0.1 1.2 1.4 0.6 4.4 0.5 6.2z"/>
	<path class="s0" d="m405.1 318c1 0 1.8-0.2 2.7 0.5 0.2 0.6 0.3 0.9 0.3 1.5-0.1 1-0.1 2.1-0.1 3.1 1.3-0.6 3.1-1.2 4.6-0.8 0.7 0.2 1.4 0.7 1.7 1.4 0.7 1.4 1.2 7.6 0.6 9-0.1 0.2-0.1 0.2-0.4 0.3-0.8 0.1-1.5 0-2.2-0.5-0.6-1.2-0.3-3.2-0.2-4.6 0-0.7 0-1.8-0.3-2.4-0.2-0.6-0.9-0.9-1.5-1.1-0.6-0.1-1 0-1.4 0.3-1.2 1.7-0.8 4.3-0.9 6.2 0 0.9-0.1 1.5-0.8 2.1-0.7 0.2-1.1 0.1-1.8-0.1-0.8-1.2-0.3-12.6-0.3-14.9z"/>
	<path class="s0" d="m435.2 322.1c1.3 0 2.7 0.2 3.7 1.1 1.4 1.3 1.4 3.3 1.5 5.1-1.8 0.1-4.3-0.3-6 0.2-0.6 0.2-0.6 0.2-0.9 0.7 0.3 0.6 0.6 1 1.2 1.4 1.5 0.8 3.5 0.1 5-0.3 0.1 0.8 0 1.4-0.3 2.1-0.4 0.4-0.8 0.5-1.3 0.6-1.8 0.4-3.9 0.3-5.4-0.8-1.2-0.7-2-2-2.3-3.4-0.3-1.6-0.1-3.3 0.9-4.7 1-1.4 2.2-1.8 3.9-2z"/>
	<path class="s2" d="m435.3 323.9c0.4 0.2 0.7 0.3 1.1 0.5 0.5 0.3 1 0.8 1.1 1.5l-0.2 0.3-1 0.2c-0.7 0-1.7 0.1-2.3-0.2-0.3-0.2-0.2-0.2-0.4-0.7 0.4-0.7 1-1.1 1.7-1.6z"/>
	<path class="s0" d="m455.9 322.2c2 0 2.2 0.9 2.7 0.8 1.5 0 3.1-1.2 4.6-1 0.7 0.1 1.1 0.4 1.5 1 1.4 2 1.4 7.4 0.9 9.8-0.8 0.3-2 0.2-2.8 0.2v-4.9c0-0.6 0-1.2-0.1-1.8-0.1-1-0.7-1.5-1.5-2.1-0.5 0-0.7-0.2-1.2 0.1-1.9 1.4-1.3 6.6-1.3 8.7h-2.9c0-3.6-0.2-7.2 0.1-10.8z"/>
	<path class="s0" d="m361.8 320q0.1 0 0.2 0c0.7 0 0.9-0.1 1.5 0.4-0.1 0.6-0.1 1 0.1 1.6 0.8 0.4 1.8 0.2 2.7 0.4 0.4 0.4 0.4 0.6 0.5 1.2l-0.4 0.5c-0.9 0.5-1.9 0.4-2.9 0.4 0 1.4-0.3 3.5 0.2 4.9 0.2 0.7 0.5 1.1 1.2 1.4q0.7-0.1 1.5-0.1c0.4 0.7 0.3 1.1 0.2 1.9-1.1 0.5-3 1-4.2 0.4-2.9-1.5-1.1-5.8-1.9-8.1-0.1-0.4-0.9-0.6-1.2-0.7-0.1-0.2-0.2-0.4-0.1-0.5 0.5-1 1.8-2.2 2.5-3.4q0.1-0.2 0.1-0.3z"/>
	<path class="s0" d="m385.9 322.1c1.1 0 2.3 0.1 3.3 0.5 0.4 0.5 0.4 0.7 0.4 1.3-1 1.2-3.1 0.5-4.5 0.9-0.2 0.3-0.5 0.6-0.7 1-0.3 1-0.3 2.8 0 3.8 0.9 2.2 3.5 0.3 5 0.9l0.3 0.9c-0.1 0.3-0.3 0.6-0.4 0.9-0.4 0.5-1.4 0.9-2.1 1.1-1.3 0.2-2.7-0.2-3.7-1-1.4-0.9-2.1-2.4-2.4-4-0.2-1.4-0.1-3.1 0.8-4.3 1.1-1.3 2.4-1.8 4-2z"/>
	<path class="s1" d="m377.5 308.6c0.7 0.4 1.2 0.5 1.9 0.2 3.6-1.4 5.9-7.9 8.1-10.9-0.8 4.8-3.1 10.7-7.1 13.6-1.4 1-3 1.5-4.7 1.2-1-0.2-1.9-0.7-2.5-1.6-0.3-0.4-0.4-0.8-0.5-1.3 2 0.1 3.1-0.3 4.8-1.2z"/>
	<path class="s0" d="m341.1 322.2c0.8 0 2.1-0.1 2.8 0.4 0.4 3.3 0.1 7 0.1 10.4-0.9 0-1.7 0-2.6-0.1-0.7-0.9-0.3-8.9-0.3-10.7z"/>
	<path class="s0" d="m341.9 318.1c0.8-0.3 1.6 0 2 0.7 0.3 0.8 0 1.6-0.7 2-0.5 0.2-1.1 0.2-1.6-0.1-0.4-0.3-0.6-0.9-0.6-1.4 0.1-0.5 0.4-1 0.9-1.2z"/>
</svg>