<svg version="1.2" xmlns="http://www.w3.org/2000/svg" viewBox="0 0 490 305" width="490" height="305">
	<title>MaayansKitchen</title>
	<style>
		.s0 { fill: #47210b } 
		.s1 { fill: #4d2814 } 
		.s2 { fill: #d5ccc7 } 
		.s3 { fill: #d6cec9 } 
		.s4 { fill: #d6cdc8 } 
		.s5 { fill: #d4cbc6 } 
		.s6 { fill: #56321e } 
		.s7 { fill: #532e1a } 
		.s8 { fill: #d3cbc6 } 
		.s9 { fill: #dbd4d0 } 
		.s10 { fill: #dad2ce } 
		.s11 { fill: #dad3ce } 
		.s12 { fill: #dbd3cf } 
		.s13 { fill: #ddd5d1 } 
		.s14 { fill: #dbd4cf } 
		.s15 { fill: #d7ceca } 
		.s16 { fill: #d9d1cd } 
		.s17 { fill: #d5cdc7 } 
		.s18 { fill: #d3cac5 } 
		.s19 { fill: #d1c7c2 } 
		.s20 { fill: #d2c9c4 } 
		.s21 { fill: #4e2a15 } 
		.s22 { fill: #522e19 } 
		.s23 { fill: #4c2713 } 
		.s24 { fill: #54301c } 
		.s25 { fill: #4b2611 } 
		.s26 { fill: #593521 } 
		.s27 { fill: #f9f8f7 } 
	</style>
	<g>
	</g>
	<g>
		<path fill-rule="evenodd" class="s0" d="m282.5 34.5q54.3-2.2 78.5 46 19 53.2-22.5 91.5-9.1 6-19 10.5-1.7-14.5-0.5-29 8.1-6.3 15-14 6.5-26.3-12.5-45.5-8.3-5.1-16 1-17.9 20.5-9.5 46.5 4.4 5.9 11.5 8.5 1.8 1.4 2.5 3.5 1 16 0 32-19.6 5.4-39.5 1-1.3-15.5-0.5-31 3-6 9.5-7.5 4.4-3.4 6.5-8.5 1.1-22.6-1.5-45-1.5 0-3 0 0.3 17-0.5 34-2.5 1.4-5.5 1 0-19.6-2-39-2 0-4 0 0 19.5 0 39-3 0-6 0 0-19.5 0-39-2 0-4 0-1.6 19.5-2 39-2.5 0-5 0 0-17.5 0-35-2 0-4 0-2.5 21.4-2.5 43 2.1 9.6 11.5 12.5 2.8 2.3 4.5 5.5 0.7 13.5 0.5 27-36.1-14.4-46.5-52-10.9-53.5 33.5-84.5 15.5-9.3 33-11.5z"/>
	</g>
	<g>
		<path fill-rule="evenodd" class="s1" d="m149.5 95.5q-7.3 79.5-15.5 159-1.2 8 0.5 16 2.8-3.6 4-8 14.3-32.1 32.5-62 6.1-7.1 15-4 2-1 4-2 2.6 0.4 2.5 3-1.5 5.4-0.5 11 0.6 2.9 3.5 3 2.1-0.3 4-1.5 3.8-4.4 6.5-9.5 6.1-7.1 15-4 2-1 4-2 2.6 0.4 2.5 3-1.5 5.4-0.5 11 0.6 2.9 3.5 3 4.7-1 7.5-5 1.2-4.6 3.5-8.5 2.8-1.2 5 0.5-0.2 6.5 0.5 13 1 1.1 2.5 1 4.4-1.3 5.5-6 0.7-5.1 2-10 4.2-2.5 5.5 2-0.2 8 0.5 16 2.1-1.8 3.5-4 3.9-1.6 6.5-5 5.3-12.1 18-9 2-1 4-2 2.9 0.8 2.5 4-1.4 5.5-0.5 11 2.2 2.7 5.5 1.5 9.3-5 7-15.5 2-0.3 3.5 1 0.3 2.6 1.5 5 3.2-4.5 8-7.5 5.7-1.8 8 3.5-1.2 7-0.5 14 1.9 1.9 3.5 0 3.1-3.7 5.5-8-0.3 9.7-9.5 13-3.4-0.6-4.5-4-0.7-5-0.5-10 0.4-2.7-1-5-1.5 0.7-2.5 2-4.3 8.7-8.5 17-2.3 0.1-3-2 0.2-3-0.5-6-4.8 7.3-13.5 6-1.7-0.1-3-1-1-2.9-1.5-6-2.8 3.8-5.5 7.5-4.3 1.9-9 1.5-1.5-1-3-2-1-2.4-1.5-5-6.1 5.1-10 12-0.5 13.5-1 27-1.3 8.9-5 17-5.1 5.3-12.5 4-8.5-8.7-5.5-21 6.1-16.3 17.5-29 1.7-3.7 0.5-8-3.9 5.3-10.5 4-2-1.5-4-3-0.9-2.2-2.5-4-4.8 7.3-13.5 6-1.7-0.1-3-1-0.7-3-1.5-6-3.6 10.4-14.5 9-1-0.5-2-1-1.2-2.5-2.5-5-4.6 5.2-11.5 4-1.7-0.1-3-1-0.7-3-1.5-6-3.6 10.4-14.5 9-0.5 0-1 0-1.6-3.4-4.5-3-14.5 32-29 64-2 1.6-4.5 2-2.3 0-3.5-2-1-13.5 0-27 6.1-64.5 12.5-129 1.8-8.2 1.5-17-1.4 1.2-2 3-14.4 43.7-27 88-2.7 8.4-7 16-1.7 2.3-4.5 2-2.9-0.1-3.5-3-2.2-30.7-7.5-61-2-13.6-5.5 0-8.7 43.5-17 87-2 1.3-4.5 1-0.9-0.2-1.5-1-1.6-20.7-1.5-41.5 1.2-42.2 2-84.5 3.4-0.6 5 2-1.3 54.5-0.5 109 1.8-9.5 3.5-19 3.7-29.6 12.5-58 1.7-4.1 4.5-7.5 4.2-1.5 6 2.5 3.3 9.2 4.5 19 2 22.6 5 45 1.7 3.8 3.5 0 14.8-49.1 30.5-98 2-7.3 7.5-12.5 2.9-0.4 4 2.5z"/>
	</g>
	<g>
		<path fill-rule="evenodd" class="s2" d="m149.5 95.5q1.4 0.7 2.5 2 1 8.5 0 17-7.7 69.5-14.5 139 0 4.8 1 9-1.2 4.4-4 8-1.7-8-0.5-16 8.2-79.5 15.5-159z"/>
	</g>
	<g>
		<path fill-rule="evenodd" class="s2" d="m141.5 121.5q0.2-1.1-0.5-2-13.5 43.5-27 87-2.2 5.1-5.5 9.5-2.5 1-5 0-1.1-1-1-2.5 2.8 0.3 4.5-2 4.3-7.6 7-16 12.6-44.3 27-88 0.6-1.8 2-3 0.3 8.8-1.5 17z"/>
	</g>
	<g>
		<path fill-rule="evenodd" class="s3" d="m68.5 112.5q1.5-0.1 2.5 1 0.3 7.3 0.5 14.5-1.8 37.5 0 74.5-1.7 9.5-3.5 19-0.8-54.5 0.5-109z"/>
	</g>
	<g>
		<path fill-rule="evenodd" class="s4" d="m94.5 139.5q1.3-0.2 2 1 2.5 4.7 3.5 10 3.7 24.9 6 50 0.3 1.9 1.5 3-1.8 3.8-3.5 0-3-22.4-5-45-1.2-9.8-4.5-19z"/>
	</g>
	<g>
		<path fill-rule="evenodd" class="s5" d="m91.5 149.5q-1.7 0.4-2 2.5-9.8 40.8-15.5 82.5-1.3 2.8-2.5 5.5-4.7 1.6-7-2.5 2.5 0.3 4.5-1 8.3-43.5 17-87 3.5-13.6 5.5 0z"/>
	</g>
	<g>
		<path fill-rule="evenodd" class="s6" d="m348.5 171.5q2 0 4 0 0.9 5.4-3 9 0.3-4.3-1-9z"/>
	</g>
	<g>
		<path fill-rule="evenodd" class="s7" d="m367.5 209.5q3 11-8 10-3.3-1-4-4.5 2.2-3.4 5-6.5-5.6-4.8-4.5-12 4.7-3.9 9.5 0-2.3 1.9-4.5 0-2.5 7 5 10 5.1-2.7 10.5-3.5-5.1 2.5-9 6.5z"/>
	</g>
	<g>
		<path fill-rule="evenodd" class="s8" d="m330.5 197.5q2.5 6.6 3 14-1.6 1.9-3.5 0-0.7-7 0.5-14z"/>
	</g>
	<g>
		<path fill-rule="evenodd" class="s3" d="m192.5 197.5q1.5-0.1 2.5 1-0.1 6.6 0.5 13-2.9-0.1-3.5-3-1-5.6 0.5-11z"/>
	</g>
	<g>
		<path fill-rule="evenodd" class="s3" d="m227.5 197.5q1.5-0.1 2.5 1-0.1 6.6 0.5 13-2.9-0.1-3.5-3-1-5.6 0.5-11z"/>
	</g>
	<g>
		<path fill-rule="evenodd" class="s9" d="m262.5 198.5q1.5-0.1 2.5 1 0.3 5.8 1.5 11-1.4 2.2-3.5 4-0.7-8-0.5-16z"/>
	</g>
	<g>
		<path fill-rule="evenodd" class="s10" d="m324.5 202.5q-4.9 7.3-7.5 16-3.8 2.3-4.5-2 4.2-8.3 8.5-17 1-1.3 2.5-2 1.4 2.3 1 5z"/>
	</g>
	<g>
		<path fill-rule="evenodd" class="s11" d="m179.5 198.5q2.5-0.2 5 0.5 0.8 0.8 1 2-2.8 7.8-9.5 12.5-1.2-0.2-2-1-1.8-8.9 5.5-14z"/>
	</g>
	<g>
		<path fill-rule="evenodd" class="s12" d="m214.5 198.5q2.5-0.2 5 0.5 0.8 0.8 1 2-2.8 7.8-9.5 12.5-1.2-0.2-2-1-1.8-8.9 5.5-14z"/>
	</g>
	<g>
		<path fill-rule="evenodd" class="s13" d="m284.5 198.5q3.5-0.4 6 2-2.4 5.2-5.5 10-2.6 2.9-6.5 3-1.5-9.5 6-15z"/>
	</g>
	<g>
		<path fill-rule="evenodd" class="s11" d="m246.5 198.5q1 0.9 2 2 1.5 5.9 1 12-1.5 0.1-2.5-1-0.7-6.5-0.5-13z"/>
	</g>
	<g>
		<path fill-rule="evenodd" class="s14" d="m359.5 219.5q11 1 8-10 6-2.3 12-3.5-4.4 2.6-8.5 5.5 2.5 13.8-10.5 10-1.2-0.7-1-2z"/>
	</g>
	<g>
		<path fill-rule="evenodd" class="s15" d="m187.5 213.5q-4.7 8.1-14 5.5-1.9-0.6-2-2.5 10.9 1.4 14.5-9 0.8 3 1.5 6z"/>
	</g>
	<g>
		<path fill-rule="evenodd" class="s15" d="m222.5 213.5q-4.7 8.1-14 5.5-1.9-0.6-2-2.5 10.9 1.4 14.5-9 0.8 3 1.5 6z"/>
	</g>
	<g>
		<path fill-rule="evenodd" class="s16" d="m241.5 212.5q-6 6.9-15 4.5-1.1-1-1-2.5 8.7 1.3 13.5-6 1.6 1.8 2.5 4z"/>
	</g>
	<g>
		<path fill-rule="evenodd" class="s17" d="m292.5 213.5q-4.7 8.1-14 5.5-1.9-0.6-2-2.5 4.7 0.4 9-1.5 2.8-3.8 5.5-7.5 0.5 3.1 1.5 6z"/>
	</g>
	<g>
		<path fill-rule="evenodd" class="s10" d="m273.5 214.5q-5.6 3.8-8.5 10-0.5 16.5-2 33-1.2 8.6-7.5 14.5-6.9 1.8-12-2.5 7.4 1.3 12.5-4 3.7-8.1 5-17 0.5-13.5 1-27 3.9-6.9 10-12 0.5 2.6 1.5 5z"/>
	</g>
	<g>
		<path fill-rule="evenodd" class="s10" d="m309.5 214.5q-5.8 4.2-13 2.5-1.1-1-1-2.5 8.7 1.3 13.5-6 0.7 3 0.5 6z"/>
	</g>
	<g>
		<path fill-rule="evenodd" class="s3" d="m204.5 215.5q-6.2 2.8-13 1.5-1.1-1-1-2.5 6.9 1.2 11.5-4 1.3 2.5 2.5 5z"/>
	</g>
	<g>
		<path fill-rule="evenodd" class="s18" d="m361.5 211.5q1.9 2.8 0 6-1.8-3 0-6z"/>
	</g>
	<g>
		<path fill-rule="evenodd" class="s16" d="m170.5 216.5q-5.3 6.1-8.5 14-10.2 25.4-22 50-4.9 4.5-7.5-1 2.5-0.4 4.5-2 14.5-32 29-64 2.9-0.4 4.5 3z"/>
	</g>
	<g>
		<path fill-rule="evenodd" class="s19" d="m255.5 219.5q-3.7-1.2-8-1.5-1.3-1.1-2-2.5 6.6 1.3 10.5-4 1.2 4.3-0.5 8z"/>
	</g>
	<g>
		<path fill-rule="evenodd" class="s20" d="m254.5 237.5q-0.5-1.9-1.5 0-9.3 13.2-6.5 29-2.9-2.2-3.5-6-0.6-18.3 11.5-32 2 4.7 0 9z"/>
	</g>
	<g>
		<path fill-rule="evenodd" class="s21" d="m275.5 231.5q1.5 0 3 0-0.2 3 0.5 6 2.2-5.3 7.5-5.5-7.7 6.4 0 13-1.5 1-3 0-1.8-2.5-4-4.5-1.4 2.3-1 5-1.5 0-3 0 0-7 0-14z"/>
	</g>
	<g>
		<path fill-rule="evenodd" class="s22" d="m301.5 231.5q1.5 0 3 0 0 7 0 14-1.5 0-3 0 0-7 0-14z"/>
	</g>
	<g>
		<path fill-rule="evenodd" class="s23" d="m320.5 231.5q5.1-0.5 10 1-1.8 1.4-4 1 0 6 0 12-1.5 0-3 0 0-6 0-12-2.5 0.3-3-2z"/>
	</g>
	<g>
		<path fill-rule="evenodd" class="s24" d="m348.5 231.5q3.5 0 7 0 0.1 4.5-3.5 2-4.9 2.5-3 8 1.1 1.6 3 2 2-1.4 3.5 0-3.4 3.4-8 1-4.3-6.9 1-13z"/>
	</g>
	<g>
		<path fill-rule="evenodd" class="s6" d="m371.5 231.5q1.5 0 3 0 0 2.5 0 5 2.5 0 5 0 0-2.5 0-5 1.5 0 3 0 0 7 0 14-1.5 0-3 0 0-3 0-6-2.5 0-5 0 0 3 0 6-1.5 0-3 0 0-7 0-14z"/>
	</g>
	<g>
		<path fill-rule="evenodd" class="s25" d="m399.5 231.5q4.1-0.5 8 1-2.3 1.4-5 1 0 1.5 0 3 2.5 0 5 0 0 1.5 0 3-2.5 0-5 0 0 2 0 4 2.7-0.4 5 1-3.9 1.5-8 1 0-7 0-14z"/>
	</g>
	<g>
		<path fill-rule="evenodd" class="s26" d="m423.5 231.5q2.5-0.3 4.5 1 2.5 4.5 5 9 0.7-5 0.5-10 1.5 0 3 0 0 7 0 14-2.7 0.4-5-1-1.9-4.2-4.5-8-0.7 4.5-0.5 9-1.5 0-3 0 0-7 0-14z"/>
	</g>
	<g>
		<path fill-rule="evenodd" class="s27" d="m254.5 237.5q0.5 14.8-5 28.5-1.4 0.7-3 0.5-2.8-15.8 6.5-29 1-1.9 1.5 0z"/>
	</g>
</svg>