<svg version="1.2" xmlns="http://www.w3.org/2000/svg" viewBox="0 0 1546 919" width="541" height="322">
	<title>Maayan_HD</title>
	<style>
		.s0 { fill: #462009 } 
		.s1 { fill: #998376 } 
		.s2 { fill: #48220d } 
		.s3 { fill: #d9d2cd } 
		.s4 { fill: #dad3cf } 
		.s5 { fill: #dad2ce } 
		.s6 { fill: #806657 } 
		.s7 { fill: #d9d1cd } 
		.s8 { fill: #4a2510 } 
		.s9 { fill: #dbd4d0 } 
		.s10 { fill: #49240e } 
		.s11 { fill: #d8d0cc } 
		.s12 { fill: #d9d1cc } 
		.s13 { fill: #d4ccc7 } 
		.s14 { fill: #d8d0cb } 
		.s15 { fill: #d9d2ce } 
		.s16 { fill: #fcfbfb } 
		.s17 { fill: #fbfafa } 
		.s18 { fill: #dcd5d1 } 
		.s19 { fill: #b5a59c } 
		.s20 { fill: #f5f3f2 } 
		.s21 { fill: #f8f7f6 } 
		.s22 { fill: #ddd6d2 } 
		.s23 { fill: #f2efee } 
		.s24 { fill: #ddd7d3 } 
		.s25 { fill: #d7cfca } 
		.s26 { fill: #dbd3cf } 
		.s27 { fill: #ded8d4 } 
		.s28 { fill: #826858 } 
		.s29 { fill: #4c2712 } 
		.s30 { fill: #46210a } 
		.s31 { fill: #47210c } 
		.s32 { fill: #4b2510 } 
		.s33 { fill: #4b2611 } 
		.s34 { fill: #49230e } 
		.s35 { fill: #48220c } 
		.s36 { fill: #a18e82 } 
		.s37 { fill: #d6cec9 } 
		.s38 { fill: #d3cac5 } 
		.s39 { fill: #ded7d3 } 
		.s40 { fill: #fdfdfc } 
		.s41 { fill: #ccc2bc } 
		.s42 { fill: #d8d1cc } 
		.s43 { fill: #755847 } 
	</style>
	<g>
	</g>
	<g>
		<path fill-rule="evenodd" class="s0" d="m857.5 380.5q-8.5 0-17 0 0.5-4.8-1-9 0-48.3-2-96.5 0-8.8-2-16.5-4.2-1.5-9-1 0 4 0 8-4.3 56.9-7 114-7.9-1.2-16-1 0-54 0-108-5 0-10 0-5.1 49.1-11.5 98-1.3 19.1 2 38 4.1 21 22.5 31.5 28.3 7.6 31 36.5-1.5 36-4 72-96.8-40.5-135.5-138-47-138.6 48-249 97.6-99 234.5-70.5 142.8 41.3 178.5 185.5 22 131.9-72.5 225.5-32.8 29.7-74 46.5-2.3-41.5-3.5-83 2.6-14.4 14.5-22.5 12-5.2 23-12 15.8-15.3 17.5-37.5 4.3-52.2-21-98-9.7-14.7-23.5-25.5-24.6-14.2-47 3-25.5 24.8-34.5 59.5-11.5 38.3-2 77 4.7 15.7 18.5 24.5 14.9 5.8 26.5 16.5 7.2 10.3 6.5 23-2 42-3.5 84-61.1 15.7-122.5 0.5-2.7-40.1-5-80.5 0.3-17.9 14-29.5 14.6-6.4 27.5-15.5 10.2-12.2 13-28 2.2-19 1-38-4.1-47-7.5-94-5 0-10 0-1.3 54-1 108-7.4-0.5-14.5 1-4.7-61-9.5-122-5 0.5-10 1-1.7 61-2 122z"/>
	</g>
	<g>
		<path fill-rule="evenodd" class="s1" d="m835.5 258.5q-4 0-8 0 0.5 3.8-1 7 0-4 0-8 4.8-0.5 9 1z"/>
	</g>
	<g>
		<path fill-rule="evenodd" class="s2" d="m481.5 274.5q1.7 16.4 0.5 33-2.4 25-4 50-18.9 171.4-37 343-5.7 61.4-7.5 123 2 0.3 3.5-1 3.8-7.5 7.5-15 35.9-81.3 77.5-160 13.8-20.5 26-42 10.9-13.5 27.5-18.5 6-1 12 0 7 2.4 14 4.5 2.2-8.4 11-6.5 2.7 1 4 3.5-0.9 13.8-2 27.5-0.1 7.4 1.5 14.5 4.4 9.1 13.5 6 9.1-2.8 15.5-10 1.9-3.4 5-6 10.1-29.6 41-34 10.1 1.2 19.5 5 1.5-6.4 8.5-7 7.9 1.1 7.5 9-4.8 17.8-1.5 36 4.5 9.9 14.5 7 5.6-1.6 10-5.5 6.8-6.3 12.5-13.5-1.3-12.6 7.5-21.5 7.1-3.6 15-2 2.6 2.7 2 6.5-2.2 7.1-2 15 0.2 9.1 1.5 18 2.7 8.5 10.5 7 12.2-5.9 16.5-19 2.8-15.6 6-31 6.8-7.3 14.5-1 1.3 2.9 1 6-0.3 26 0.5 52 5.5-3.8 9.5-9 11.9-9.4 24-19 12.3-32.6 47-32.5 6.2 1.8 12 4.5 4.1-8.1 13-6.5 2.8 1.6 4 4.5 0.1 10.6-2.5 21-3.5 14.6 6.5 25.5 4.6 2.5 9 0.5 4.5-0.5 8-3.5 8.3-7.8 15.5-16.5 0.5-13.5 1-27 12.3-6.2 14.5 7-2.1 22.2 8 3 8.6-11.8 22-17.5 14.7-3.7 21 9.5-1.7 21-1.5 42 1.9 10.5 10.5 5 11.9-12.8 19.5-29 2.2-1.9 2.5 1.5-4.4 21.5-20 36.5-7.6 5.2-17 5-9.1-3.4-11.5-13-2.6-13.9-0.5-28 1.5-9.2 1-19-3.2-0.2-6 1.5-10.5 13.1-17.5 28.5-5.3 13.4-10 27-2.1 2.4-4.5 4-8.2 0.9-10-7 0.5-11.6-1-19-7.1 11.1-19 17-12.1 4.1-25 3-3.9-2.4-8-5-3.9-8.6-5-18-7 13.7-18 24.5-13.3 8.4-28 3.5-5.1-1.6-8-6-2.6-4.2-4-9 0.2-3-0.5-6-11 9.8-21.5 20-9.7 9.4-11.5 23 0.1 40.6-3 81-1.2 29.4-17 54-16.3 15.8-37.5 7-6.9-4.2-11.5-11-12.6-26.2-4-54 16.7-49.2 54-85 1.4-4.4 1.5-9 2-9.8 0-20-0.9 0.2-1 1-10.8 16.1-30 11.5-2.5-0.9-5-1.5-5.4-2.9-9-8-2.9-4.4-5-9-0.7-3-1.5-6-7.6 11.8-19.5 19-6 1.7-12 3.5-7 0.8-14-0.5-3.7-2.1-7-5-4.9-8.3-5.5-18-7.1 14.9-19.5 25.5-12.4 6.4-26 3.5-3.7-2.1-7-5-5-6-5.5-14-15.9 16.5-38.5 13-3.8-2.1-7-5-5.1-8.2-5.5-18-6.9 14-18.5 24.5-13.3 8.4-28 3.5-2-1-4-2-5-3.9-7-10 0.2-1.1-0.5-2-13.1 19.2-21.5 41-26 58-50.5 117-9.9 23.8-23 46-6.3 7.9-16.5 7-3.9-0.1-6.5-3-3.5-7.1-4-15-1-31 1-62 4.7-60 10-120 17-152.4 32.5-305 1.8-16.2 3-33 1-18.2-5.5-2-16.3 48.4-32 97-27.3 93.7-56 187-7.8 22.2-19 43-6.6 7.3-16.5 6-3.7-0.4-6.5-3-3.3-5-4-11-5.3-64.1-13-128-4.6-31.6-10.5-63-1.3-8.1-3.5-16-1.6-1.5-3.5-0.5-5.7 10.7-8.5 22.5-27.5 127.3-48 256-2.6 9.3-7 18-4.3 2.9-9.5 3-9.3-2.1-9.5-12-2.4-100.5-1-201 2.9-92 5-184 6.5-7.4 14-1 0.3 3.3 1.5 6 0.7 12.5 1 25-7 154.9-5.5 310 0.4 3.7 2 7 0.5-0.5 1-1 2.8-19.1 6.5-38 12.8-96.8 38.5-191 3.7-10.6 8-21 3.3-7.9 8.5-14.5 14.2-7.7 20 7.5 10 27.1 13.5 56 7.8 69.5 16 139 0.8 6.4 4.5 11.5 4.8 0.5 6-4.5 3.1-5.8 5.5-12 11.1-32.3 21-65 22.5-80.6 46-161 15.6-50.7 37-99 3.2-5.2 7.5-9.5 11.3-5.5 14 6.5z"/>
	</g>
	<g>
		<path fill-rule="evenodd" class="s3" d="m481.5 274.5q8.5 1.4 9.5 10-0.1 54.1-6 108-15.8 138.9-31 278-5.4 60.5-10 121-1.2 8.3 0.5 16-3.7 7.5-7.5 15-1.5 1.3-3.5 1 1.8-61.6 7.5-123 18.1-171.6 37-343 1.6-25 4-50 1.2-16.6-0.5-33z"/>
	</g>
	<g>
		<path fill-rule="evenodd" class="s4" d="m460.5 344.5q0.2-2.1-0.5-4-10 30-20 60-28.5 95.5-57 191-8.9 27.4-22 53-7.8 9.9-20.5 6.5-4.5-3.3-6-8.5 9.9 1.3 16.5-6 11.2-20.8 19-43 28.7-93.3 56-187 15.7-48.6 32-97 6.5-16.2 5.5 2-1.2 16.8-3 33z"/>
	</g>
	<g>
		<path fill-rule="evenodd" class="s5" d="m230.5 328.5q5.9-0.1 8.5 5 1.5 12.7 1.5 25.5-3.3 94.7-5.5 189.5-1.2 41.8 0.5 83-3.7 18.9-6.5 38-0.5 0.5-1 1-1.6-3.3-2-7-1.5-155.1 5.5-310-0.3-12.5-1-25z"/>
	</g>
	<g>
		<path fill-rule="evenodd" class="s6" d="m839.5 371.5q1.5 4.2 1 9 8.5 0 17 0-8.7 1.5-18 1 0-5 0-10z"/>
	</g>
	<g>
		<path fill-rule="evenodd" class="s5" d="m310.5 412.5q6.8 2.1 9.5 9 6.9 20.6 11 42 8.5 61.8 14 124 1.5 13.1 4 26 0.6 0.8 1.5 1-1.2 5-6 4.5-3.7-5.1-4.5-11.5-8.2-69.5-16-139-3.5-28.9-13.5-56z"/>
	</g>
	<g>
		<path fill-rule="evenodd" class="s7" d="m300.5 437.5q-1.5 0-2 1.5-9.4 31.9-15.5 64.5-19.6 102.3-37 205-2 10.8-8.5 19.5-12.6 5.2-17-7.5 5.2-0.1 9.5-3 4.4-8.7 7-18 20.5-128.7 48-256 2.8-11.8 8.5-22.5 1.9-1 3.5 0.5 2.2 7.9 3.5 16z"/>
	</g>
	<g>
		<path fill-rule="evenodd" class="s8" d="m1117.5 519.5q0.6 7.3-2 14-2.3 7.6-9.5 5 0.9-5.2 2.5-10.5-1.6-5.9-4-11.5 1.5-7.3 9-5.5 3.2 3.7 4 8.5z"/>
	</g>
	<g>
		<path fill-rule="evenodd" class="s9" d="m1117.5 519.5q8.1-0.2 9.5 8 2.8 11.6-5.5 20-4.1 2.4-7-1 4.9-6.6 1-13 2.6-6.7 2-14z"/>
	</g>
	<g>
		<path fill-rule="evenodd" class="s10" d="m1157.5 592.5q-5.5 3.9-11-0.5-7.1-2.4-6 5 0.2 7 4.5 12.5 5 5.8 9.5 12 1.2 1.3 3 1 16.2-5.1 31-13.5 1.7-1.1 3 0.5-1.7 2.5-4 4.5-12.3 7.4-24 15.5-0.9 0.4-1 1.5 6.1 13.5-0.5 26.5-11 9.2-24.5 4-16.5-8.1-5.5-23 5.1-5.9 11.5-10-8.1-9.7-15.5-20-8.5-22.5 15.5-24 5.9-0.4 11 2.5 3.2 1.9 3 5.5z"/>
	</g>
	<g>
		<path fill-rule="evenodd" class="s11" d="m1047.5 591.5q7.8 1.9 9.5 10 0 15-1.5 30 0 3.8 1 7-8.6 5.5-10.5-5-0.2-21 1.5-42z"/>
	</g>
	<g>
		<path fill-rule="evenodd" class="s9" d="m1157.5 592.5q3.6 2.6 8 4.5 3 5.6-3 6.5-4.6-1.1-9-3-2.3 0-3.5 2-1.1 5.1 1 10 3 5.2 6.5 10-1.8 0.3-3-1-4.5-6.2-9.5-12-4.3-5.5-4.5-12.5-1.1-7.4 6-5 5.5 4.4 11 0.5z"/>
	</g>
	<g>
		<path fill-rule="evenodd" class="s7" d="m616.5 588.5q1.4 2.1 1 5 8-0.3 9 7.5-3.3 17.6-3 35.5 3 0 6 0-9.1 3.1-13.5-6-1.6-7.1-1.5-14.5 1.1-13.7 2-27.5z"/>
	</g>
	<g>
		<path fill-rule="evenodd" class="s7" d="m726.5 593.5q5.7-1 8.5 4-1.6 18.5-2 37 2.6 2.6 6.5 2-10 2.9-14.5-7-3.3-18.2 1.5-36z"/>
	</g>
	<g>
		<path fill-rule="evenodd" class="s12" d="m944.5 589.5q1.4 1.6 1 4 8-0.3 9 7.5-3.3 17.6-3 35.5 3 0 6 0-4.4 2-9-0.5-10-10.9-6.5-25.5 2.6-10.4 2.5-21z"/>
	</g>
	<g>
		<path fill-rule="evenodd" class="s9" d="m1029.5 611.5q0.2-1.6-0.5-3-14.2 24.3-23.5 51-6.9 6.3-12.5-1-0.7-2.5-0.5-5 2.4-1.6 4.5-4 4.7-13.6 10-27 7-15.4 17.5-28.5 2.8-1.7 6-1.5 0.5 9.8-1 19z"/>
	</g>
	<g>
		<path fill-rule="evenodd" class="s13" d="m834.5 595.5q6.4-0.5 9.5 5 0.8 19 0.5 38-4 5.2-9.5 9-0.8-26-0.5-52z"/>
	</g>
	<g>
		<path fill-rule="evenodd" class="s14" d="m996.5 596.5q4.7-0.2 8 3-10.1 19.2-8-3z"/>
	</g>
	<g>
		<path fill-rule="evenodd" class="s4" d="m593.5 607.5q-5.6-2.2-11 1.5-13.2 11.2-16 28.5 0.1 2.7 2 4-4.2 1.7-9 0.5-1.6-2-2-4.5-0.2-2.5 0.5-5 3.7-4.2 5.5-9.5-1.6-2.3-3-4.5 7.8-26.6 34-18.5 1.8 4.1-1 7.5z"/>
	</g>
	<g>
		<path fill-rule="evenodd" class="s15" d="m702.5 607.5q-10.7-1.3-17.5 8-9.2 11.8-7.5 26-3.7 1.7-8 0.5-1.8-1.4-2.5-3.5-2.4-23.4 15.5-38.5 12-5.6 23 1.5-1.5 3.2-3 6z"/>
	</g>
	<g>
		<path fill-rule="evenodd" class="s7" d="m921.5 606.5q-5.7-1.2-11 2.5-15.6 12.9-15 32.5-11.9 4.1-11-9 1.7-22.3 20-34.5 9.3-1.5 18 2 1.6 3.6-1 6.5z"/>
	</g>
	<g>
		<path fill-rule="evenodd" class="s12" d="m786.5 600.5q3.8 2.7 9 3.5 0.8 0.8 1 2-4.6 15.5-2 31.5 0.2 2.3 2 3-7.8 1.5-10.5-7-1.3-8.9-1.5-18-0.2-7.9 2-15z"/>
	</g>
	<g>
		<path fill-rule="evenodd" class="s16" d="m593.5 607.5q-7.4 20.9-25 34-1.9-1.3-2-4 2.8-17.3 16-28.5 5.4-3.7 11-1.5z"/>
	</g>
	<g>
		<path fill-rule="evenodd" class="s16" d="m702.5 607.5q-6.8 21.3-25 34-1.7-14.2 7.5-26 6.8-9.3 17.5-8z"/>
	</g>
	<g>
		<path fill-rule="evenodd" class="s17" d="m921.5 606.5q-6.9 18.5-21 32.5-2.4 1.6-5 2.5-0.6-19.6 15-32.5 5.3-3.7 11-2.5z"/>
	</g>
	<g>
		<path fill-rule="evenodd" class="s18" d="m1041.5 652.5q9.4 0.2 17-5 1.7 2.8 5 1.5 4.2-2.7 7.5-6.5 8.5-12 15.5-25-0.9 22-17 37.5-9.7 8.7-22 5-3.9-3.2-6-7.5z"/>
	</g>
	<g>
		<path fill-rule="evenodd" class="s18" d="m1137.5 661.5q13.5 5.2 24.5-4 6.6-13 0.5-26.5 0.1-1.1 1-1.5 2.3 2.9 6 1.5 15.6-6.8 31-13.5 0.2 1.6-0.5 3-13.7 9.4-28 18 0 4.1 2 8 4.7 28.3-23.5 25.5-9.1-2.4-13-10.5z"/>
	</g>
	<g>
		<path fill-rule="evenodd" class="s19" d="m560.5 618.5q1.4 2.2 3 4.5-1.8 5.3-5.5 9.5-0.7 2.5-0.5 5-2.1-10 3-19z"/>
	</g>
	<g>
		<path fill-rule="evenodd" class="s20" d="m765.5 631.5q-6.3 11.1-18.5 15-2.1-0.3-2.5-2 11.9-7.2 19.5-19 0.8 3 1.5 6z"/>
	</g>
	<g>
		<path fill-rule="evenodd" class="s21" d="m981.5 627.5q1.5 7.6-4 12.5-5.7 4.8-13 6.5-1.8-0.4-2-2 11.9-5.9 19-17z"/>
	</g>
	<g>
		<path fill-rule="evenodd" class="s18" d="m602.5 642.5q-1.5-0.1-2.5 1-14.6 27.2-43.5 16.5-3.9-3.2-6-7.5 14.7 4.9 28-3.5 11.6-10.5 18.5-24.5 0.4 9.8 5.5 18z"/>
	</g>
	<g>
		<path fill-rule="evenodd" class="s22" d="m711.5 642.5q-6.1 8.2-14 15.5-16.3 10.1-33 1-2.9-2.2-4-5.5 13.6 2.9 26-3.5 12.4-10.6 19.5-25.5 0.6 9.7 5.5 18z"/>
	</g>
	<g>
		<path fill-rule="evenodd" class="s18" d="m929.5 642.5q-5.1 6.9-11 13.5-15.8 12.2-34 4-3.9-3.2-6-7.5 14.7 4.9 28-3.5 11-10.8 18-24.5 1.1 9.4 5 18z"/>
	</g>
	<g>
		<path fill-rule="evenodd" class="s9" d="m765.5 631.5q2.1 4.6 5 9-5.6 5.4-12 10.5-15.7 9.6-33 4-4.8-2.6-7-7.5 7 1.3 14 0.5 6-1.8 12-3.5 0.4 1.7 2.5 2 12.2-3.9 18.5-15z"/>
	</g>
	<g>
		<path fill-rule="evenodd" class="s21" d="m866.5 637.5q-10.5 9-21 18-1.4-1.8-1-4 10.5-10.2 21.5-20 0.7 3 0.5 6z"/>
	</g>
	<g>
		<path fill-rule="evenodd" class="s3" d="m982.5 646.5q-17.7 15.5-40 7.5-3.4-2.7-5-6.5 12.9 1.1 25-3 0.2 1.6 2 2 7.3-1.7 13-6.5 5.5-4.9 4-12.5 1.5 7.4 1 19z"/>
	</g>
	<g>
		<path fill-rule="evenodd" class="s4" d="m866.5 637.5q1.4 4.8 4 9-20.5 10.7-27.5 33-1.7 40.9-3 82-1.8 26.3-13 50-17.8 27.3-46.5 11.5-3.4-2.7-5-6.5 21.2 8.8 37.5-7 15.8-24.6 17-54 3.1-40.4 3-81 1.8-13.6 11.5-23-0.4 2.2 1 4 10.5-9 21-18z"/>
	</g>
	<g>
		<path fill-rule="evenodd" class="s23" d="m539.5 640.5q0.2 2.1-0.5 4-11.6 17.8-21 37-0.7-0.9-0.5-2 8.4-21.8 21.5-41 0.7 0.9 0.5 2z"/>
	</g>
	<g>
		<path fill-rule="evenodd" class="s24" d="m653.5 648.5q-11.5 7.8-25.5 8-12.6 2.1-18.5-9 22.6 3.5 38.5-13 0.5 8 5.5 14z"/>
	</g>
	<g>
		<path fill-rule="evenodd" class="s25" d="m1145.5 638.5q2.5-0.3 4.5 1 1 6 0 12-2.8 6.4-8 2-2.8-8.4 3.5-15z"/>
	</g>
	<g>
		<path fill-rule="evenodd" class="s26" d="m539.5 640.5q2 6.1 7 10-10.4 16.2-18.5 34-24.9 57.3-49 115-11.9 27.9-27 54-10.4 8.6-22 2-1.4-3-2.5-6 10.2 0.9 16.5-7 13.1-22.2 23-46 24.5-59 50.5-117-0.2 1.1 0.5 2 9.4-19.2 21-37 0.7-1.9 0.5-4z"/>
	</g>
	<g>
		<path fill-rule="evenodd" class="s27" d="m814.5 638.5q1.5 8.7 1 18-16.7 7-32-2.5-2.9-2.2-4-5.5 2.5 0.6 5 1.5 19.2 4.6 30-11.5z"/>
	</g>
	<g>
		<path fill-rule="evenodd" class="s28" d="m814.5 638.5q0.1-0.8 1-1 2 10.2 0 20 0-0.5 0-1 0.5-9.3-1-18z"/>
	</g>
	<g>
		<path fill-rule="evenodd" class="s7" d="m812.5 709.5q-22.9 30.8-29.5 69-2.5 16.8 4.5 32-9.5-6.5-12.5-18-2.9-15.5 0-31 9.9-39 34.5-70.5 1.4-0.9 2.5 0.5 0.7 9 0.5 18z"/>
	</g>
	<g>
		<path fill-rule="evenodd" class="s29" d="m886.5 703.5q-0.2 7 0.5 14 2-3.2 4.5-6 4.7-6.4 10-12.5 5-1 10 0-1.2 1.7-2 3.5-7 7.2-13 15.5 7.7 11.6 15 23.5-3.9 1.5-8 1-1.5 0.1-2.5-1-3-6.1-7.5-11-0.5-3.3-3-5.5-2.2-0.8-3.5 1.5-0.7 8-0.5 16-2.5 0-5 0-2.5 0-5 0 0-22 0-44 5 0 10 0 0 2.5 0 5z"/>
	</g>
	<g>
		<path fill-rule="evenodd" class="s30" d="m967.5 698.5q0 22 0 44-2 0-4 0-2.5 0-5 0 0-22 0-44 4.5 0 9 0z"/>
	</g>
	<g>
		<path fill-rule="evenodd" class="s31" d="m1048.5 703.5q0 1.5 0 3-6 0-12 0 0 18 0 36-2.5 0-5 0-2 0-4 0 0-18 0-36-4 0-8 0-2 0-4 0 0-4 0-8 16.5 0 33 0 0 2.5 0 5z"/>
	</g>
	<g>
		<path fill-rule="evenodd" class="s32" d="m1127.5 702.5q-1.9 2.8-3.5 6-13.5-8.3-20 6-1.8 9.6 3 18 1 1.1 2.5 1 2.4 2.2 6 2 5.1-0.7 10-2 0 4 0 8-11 1.9-22 0-6.1-4.6-8.5-12-1.7-11.3 2-22 11-15.3 28.5-7.5 1.9 0.6 2 2.5z"/>
	</g>
	<g>
		<path fill-rule="evenodd" class="s33" d="m1185.5 703.5q0 6 0 12 2.5 0 5 0 6 0 12 0 0-8.5 0-17 5 0 10 0 0 2.5 0 5 0 19.5 0 39-2.5 0-5 0-2.5 0-5 0 0-7 0-14 0-2.5 0-5-8.5 0-17 0 0 9.5 0 19-2.5 0-5 0-2 0-4 0 0-22 0-44 4.5 0 9 0 0 2.5 0 5z"/>
	</g>
	<g>
		<path fill-rule="evenodd" class="s34" d="m1289.5 703.5q0 1.5 0 3-8 0-16 0 0 4.5 0 9 6.7 1.5 14 1 0 3.5 0 7-7 0-14 0 0 5.5 0 11 2.5 0 5 0 5.5 0 11 0 0 2.5 0 5 0 1.5 0 3-10.5 0-21 0-2 0-4 0 0-22 0-44 12.5 0 25 0 0 2.5 0 5z"/>
	</g>
	<g>
		<path fill-rule="evenodd" class="s35" d="m1354.5 704.5q7 12 14 24 0.7 1.5 1.5 3 0.8-16.5 0.5-33 4 0 8 0 0 2.5 0 5 0 19.5 0 39-5 0-10 0-3.2-0.8-4.5-4-5.3-9.5-10.5-19-2.7-4.5-5.5-9-0.8 16-0.5 32-1.5 0-3 0-2.5 0-5 0 0-22 0-44 6.1-0.5 12 1 1.9 2.3 3 5z"/>
	</g>
	<g>
		<path fill-rule="evenodd" class="s36" d="m1370.5 698.5q0.3 16.5-0.5 33-0.8-1.5-1.5-3 1.3-0.5 1-2-0.5-14.3 1-28z"/>
	</g>
	<g>
		<path fill-rule="evenodd" class="s37" d="m886.5 703.5q2 0 4 0-0.5 4.3 1 8-2.5 2.8-4.5 6-0.7-7-0.5-14z"/>
	</g>
	<g>
		<path fill-rule="evenodd" class="s11" d="m909.5 702.5q3.2 1.2 7 1.5-7.5 9.5-15 19 7.7 11.6 15 23.5-4.9 1.7-10 0.5-2.1-1.9-3-4.5 4.1 0.5 8-1-7.3-11.9-15-23.5 6-8.3 13-15.5z"/>
	</g>
	<g>
		<path fill-rule="evenodd" class="s38" d="m967.5 698.5q1.4 2.1 1 5 2 0 4 0 0 22 0 44-4.5 0-9 0 0-2.5 0-5 2 0 4 0 0-22 0-44z"/>
	</g>
	<g>
		<path fill-rule="evenodd" class="s22" d="m1048.5 703.5q2.5 0 5 0 0 4 0 8-6 0-12 0 0 18 0 36-5 0-10 0 0-2.5 0-5 2.5 0 5 0 0-18 0-36 6 0 12 0 0-1.5 0-3z"/>
	</g>
	<g>
		<path fill-rule="evenodd" class="s24" d="m1185.5 703.5q2.5 0 5 0 0 6 0 12-2.5 0-5 0 0-6 0-12z"/>
	</g>
	<g>
		<path fill-rule="evenodd" class="s18" d="m1212.5 703.5q2 0 4 0 0 22 0 44-4.5 0-9 0 0-2.5 0-5 2.5 0 5 0 0-19.5 0-39z"/>
	</g>
	<g>
		<path fill-rule="evenodd" class="s39" d="m1289.5 703.5q2.5 0 5 0 0 4 0 8-8 0-16 0 0 2 0 4-2.5 0-5 0 0-4.5 0-9 8 0 16 0 0-1.5 0-3z"/>
	</g>
	<g>
		<path fill-rule="evenodd" class="s24" d="m1378.5 703.5q2.5 0 5 0 0 22 0 44-6.6 0.5-13-1-1-2-2-4 5 0 10 0 0-19.5 0-39z"/>
	</g>
	<g>
		<path fill-rule="evenodd" class="s25" d="m1127.5 702.5q2.5 2 4 5-0.8 3.2-2.5 6-19.4-8.9-20.5 12.5 0.1 3.9 1 7.5-1.5 0.1-2.5-1-4.8-8.4-3-18 6.5-14.3 20-6 1.6-3.2 3.5-6z"/>
	</g>
	<g>
		<path fill-rule="evenodd" class="s13" d="m1354.5 704.5q1.5-0.1 2.5 1 6.3 10.6 12.5 21 0.3 1.5-1 2-7-12-14-24z"/>
	</g>
	<g>
		<path fill-rule="evenodd" class="s40" d="m812.5 709.5q-1.8 38.3-8.5 76-2.6 10.3-7 20-3.3 5.5-9.5 5-7-15.3-4.5-32 6.6-38.2 29.5-69z"/>
	</g>
	<g>
		<path fill-rule="evenodd" class="s41" d="m1019.5 706.5q4 0 8 0 0 18 0 36-1.5-15.2-1-31-3.5 0-7 0 0-2.5 0-5z"/>
	</g>
	<g>
		<path fill-rule="evenodd" class="s42" d="m1353.5 719.5q-1.5 13.7-1 28-4 0-8 0 0-2.5 0-5 1.5 0 3 0-0.3-16 0.5-32 2.8 4.5 5.5 9z"/>
	</g>
	<g>
		<path fill-rule="evenodd" class="s43" d="m1273.5 715.5q2.5 0 5 0 5 0 10 0 0 2.5 0 5 0.4 1.9-1 3 0-3.5 0-7-7.3 0.5-14-1z"/>
	</g>
	<g>
		<path fill-rule="evenodd" class="s24" d="m1288.5 720.5q2.5 0 5 0 0 4 0 8-7.5 0-15 0 0 3 0 6-2.5 0-5 0 0-5.5 0-11 7 0 14 0 1.4-1.1 1-3z"/>
	</g>
	<g>
		<path fill-rule="evenodd" class="s22" d="m1202.5 728.5q-6 0-12 0 0 9.5 0 19-5 0-10 0 0-2.5 0-5 2.5 0 5 0 0-9.5 0-19 8.5 0 17 0 0 2.5 0 5z"/>
	</g>
	<g>
		<path fill-rule="evenodd" class="s4" d="m893.5 730.5q-1.5-0.1-2.5 1-0.7 8-0.5 16-4.5 0-9 0 0-2.5 0-5 2.5 0 5 0-0.2-8 0.5-16 1.3-2.3 3.5-1.5 2.5 2.2 3 5.5z"/>
	</g>
	<g>
		<path fill-rule="evenodd" class="s38" d="m1125.5 733.5q1.4 2.1 1 5 2 0 4 0 0 4 0 8-10 1.5-20 0.5-4.2-2.1-7-5.5 11 1.9 22 0 0-4 0-8z"/>
	</g>
	<g>
		<path fill-rule="evenodd" class="s22" d="m1289.5 739.5q2.5 0 5 0 0 4 0 8-13 0-26 0 0-2.5 0-5 10.5 0 21 0 0-1.5 0-3z"/>
	</g>
</svg>